<svg xmlns="http://www.w3.org/2000/svg" width="19.277" height="19.273" viewBox="0 0 19.277 19.273">
  <path id="Icon_awesome-instagram" data-name="Icon awesome-instagram" d="M9.636,6.933a4.941,4.941,0,1,0,4.941,4.941A4.934,4.934,0,0,0,9.636,6.933Zm0,8.154a3.213,3.213,0,1,1,3.213-3.213A3.218,3.218,0,0,1,9.636,15.087Zm6.3-8.356a1.153,1.153,0,1,1-1.153-1.153A1.15,1.15,0,0,1,15.932,6.731ZM19.2,7.9a5.7,5.7,0,0,0-1.557-4.038,5.741,5.741,0,0,0-4.038-1.557c-1.591-.09-6.361-.09-7.952,0A5.733,5.733,0,0,0,1.619,3.858,5.723,5.723,0,0,0,.062,7.9c-.09,1.591-.09,6.361,0,7.952a5.7,5.7,0,0,0,1.557,4.038,5.748,5.748,0,0,0,4.038,1.557c1.591.09,6.361.09,7.952,0a5.7,5.7,0,0,0,4.038-1.557A5.741,5.741,0,0,0,19.2,15.848c.09-1.591.09-6.356,0-7.948Zm-2.056,9.655a3.252,3.252,0,0,1-1.832,1.832c-1.269.5-4.279.387-5.681.387s-4.417.112-5.681-.387a3.252,3.252,0,0,1-1.832-1.832c-.5-1.269-.387-4.279-.387-5.681s-.112-4.417.387-5.681A3.252,3.252,0,0,1,3.955,4.361c1.269-.5,4.279-.387,5.681-.387s4.417-.112,5.681.387a3.252,3.252,0,0,1,1.832,1.832c.5,1.269.387,4.279.387,5.681S17.652,16.291,17.149,17.556Z" transform="translate(0.005 -2.238)" fill="#050605"/>
</svg>
