<svg xmlns="http://www.w3.org/2000/svg" width="19.267" height="19.267" viewBox="0 0 19.267 19.267">
  <path id="Icon_awesome-linkedin-in" data-name="Icon awesome-linkedin-in" d="M4.313,19.267H.318V6.4H4.313Zm-2-14.618A2.324,2.324,0,1,1,4.627,2.314,2.333,2.333,0,0,1,2.313,4.649ZM19.262,19.267H15.277V13.006c0-1.492-.03-3.406-2.077-3.406-2.077,0-2.4,1.621-2.4,3.3v6.369H6.815V6.4h3.831V8.159H10.7a4.2,4.2,0,0,1,3.779-2.077c4.043,0,4.786,2.662,4.786,6.12v7.066Z" transform="translate(0 0)" fill="#050605"/>
</svg>
