<svg xmlns="http://www.w3.org/2000/svg" width="23.487" height="16.515" viewBox="0 0 23.487 16.515">
  <path id="Icon_awesome-youtube" data-name="Icon awesome-youtube" d="M24.046,7.084a2.951,2.951,0,0,0-2.077-2.09C20.138,4.5,12.794,4.5,12.794,4.5s-7.345,0-9.176.494a2.951,2.951,0,0,0-2.077,2.09,30.96,30.96,0,0,0-.491,5.69,30.96,30.96,0,0,0,.491,5.69,2.907,2.907,0,0,0,2.077,2.057c1.832.494,9.176.494,9.176.494s7.345,0,9.176-.494a2.907,2.907,0,0,0,2.077-2.057,30.96,30.96,0,0,0,.491-5.69,30.96,30.96,0,0,0-.491-5.69ZM10.391,16.266V9.282l6.139,3.492-6.139,3.492Z" transform="translate(-1.05 -4.5)" fill="#050605"/>
</svg>
