<svg xmlns="http://www.w3.org/2000/svg" width="10.25" height="10.25" viewBox="0 0 10.25 10.25">
  <g id="Icon_feather-arrow-up-right" data-name="Icon feather-arrow-up-right" transform="translate(-9.5 -9.5)">
    <path id="Path_32" data-name="Path 32" d="M10.1,19.75a.6.6,0,0,1-.426-1.029l9.044-9.044a.6.6,0,0,1,.853.853l-9.044,9.044A.6.6,0,0,1,10.1,19.75Z" fill="#f57513"/>
    <path id="Path_33" data-name="Path 33" d="M19.147,19.75a.6.6,0,0,1-.6-.6V10.706H10.1a.6.6,0,1,1,0-1.206h9.044a.6.6,0,0,1,.6.6v9.044A.6.6,0,0,1,19.147,19.75Z" fill="#f57513"/>
  </g>
</svg>
