<svg xmlns="http://www.w3.org/2000/svg" width="34.583" height="34.584" viewBox="0 0 34.583 34.584">
  <g id="Group_3964" data-name="Group 3964" transform="translate(-867 -1270.708)">
    <path id="Union_3" data-name="Union 3" d="M17.292,0A17.292,17.292,0,1,0,34.584,17.292,17.292,17.292,0,0,0,17.292,0" transform="translate(866.999 1270.709)" fill="#fff"/>
    <g id="Icon_feather-mail" data-name="Icon feather-mail" transform="translate(873.943 1276.122)">
      <path id="Path_30780" data-name="Path 30780" d="M17.307,9l-6.958,5.144L3.415,9" transform="translate(0 -1.53)" fill="none" stroke="#000" stroke-linecap="round" stroke-linejoin="round" stroke-width="1.5"/>
      <path id="Path_30779" data-name="Path 30779" d="M4.47,6H16.227A1.474,1.474,0,0,1,17.7,7.47v8.818a1.474,1.474,0,0,1-1.47,1.47H4.47A1.474,1.474,0,0,1,3,16.287V7.47A1.474,1.474,0,0,1,4.47,6Z" fill="none" stroke="#050605" stroke-linecap="round" stroke-linejoin="round" stroke-width="1.5"/>
    </g>
  </g>
</svg>
