<svg xmlns="http://www.w3.org/2000/svg" width="20" height="20" viewBox="0 0 20 20">
  <g id="Hide" transform="translate(-6181 8503)">
    <rect id="Rectangle_3202" data-name="Rectangle 3202" width="20" height="20" transform="translate(6181 -8503)" fill="none"/>
    <g id="hidden" transform="translate(6183.001 -8501.001)">
      <path id="Path_255" data-name="Path 255" d="M180.429,156.461q-.258-.222-.518-.425l-2.022,2.022a3.281,3.281,0,0,1-4.193,4.193l-1.517,1.517a6.894,6.894,0,0,0,2.619.548,7.155,7.155,0,0,0,3.137-.78,11.818,11.818,0,0,0,2.494-1.677,15.484,15.484,0,0,0,2.281-2.425.469.469,0,0,0,0-.547A15.486,15.486,0,0,0,180.429,156.461Z" transform="translate(-166.799 -151.159)" fill="#f57513"/>
      <path id="Path_256" data-name="Path 256" d="M245.733,248.077a2.342,2.342,0,0,0,2.32-2.675l-2.651,2.651A2.348,2.348,0,0,0,245.733,248.077Z" transform="translate(-237.734 -237.732)" fill="#f57513"/>
      <path id="Path_257" data-name="Path 257" d="M15.862.139a.469.469,0,0,0-.663,0L11.516,3.821q-.19-.1-.38-.2A7.155,7.155,0,0,0,8,2.845a7.156,7.156,0,0,0-3.137.78A11.818,11.818,0,0,0,2.368,5.3,15.485,15.485,0,0,0,.087,7.728a.469.469,0,0,0,0,.547A15.482,15.482,0,0,0,2.368,10.7a13.207,13.207,0,0,0,1.288.981L.137,15.2a.469.469,0,1,0,.663.663L15.862.8a.469.469,0,0,0,0-.663ZM4.718,8A3.28,3.28,0,0,1,9.963,5.374l-.673.673A2.342,2.342,0,0,0,6.045,9.293l-.673.673A3.264,3.264,0,0,1,4.718,8Z" transform="translate(0 0)" fill="#f57513"/>
    </g>
  </g>
</svg>
