<svg xmlns="http://www.w3.org/2000/svg" width="34.583" height="34.584" viewBox="0 0 34.583 34.584">
  <g id="Group_5060" data-name="Group 5060" transform="translate(-867 -1270.646)">
    <path id="Union_3" data-name="Union 3" d="M17.292,0A17.292,17.292,0,1,0,34.584,17.292,17.292,17.292,0,0,0,17.292,0" transform="translate(866.999 1270.647)" fill="#fff"/>
    <path id="Icon_awesome-linkedin-in" data-name="Icon awesome-linkedin-in" d="M3.613,16.143H.267V5.366H3.613ZM1.938,3.9A1.947,1.947,0,1,1,3.876,1.939,1.955,1.955,0,0,1,1.938,3.9Zm14.2,12.248H12.8V10.9c0-1.25-.025-2.854-1.74-2.854-1.74,0-2.007,1.358-2.007,2.764v5.337H5.71V5.366h3.21v1.47h.047A3.517,3.517,0,0,1,12.133,5.1c3.387,0,4.01,2.23,4.01,5.128v5.92Z" transform="translate(876 1279.645)" fill="#050605"/>
  </g>
</svg>
