<svg id="logo" xmlns="http://www.w3.org/2000/svg" xmlns:xlink="http://www.w3.org/1999/xlink" width="66.714" height="80.322" viewBox="0 0 66.714 80.322">
  <defs>
    <clipPath id="clip-path">
      <rect id="Rectangle_2" data-name="Rectangle 2" width="66.714" height="80.322" fill="none"/>
    </clipPath>
  </defs>
  <rect id="Rectangle_1" data-name="Rectangle 1" width="66.372" height="66.372" transform="translate(0.181)" fill="#050605"/>
  <path id="Path_1" data-name="Path 1" d="M224.633,217l2.6,5.274h5.675l-4.034-8.188-1.4-2.832Z" transform="translate(-188.368 -177.147)" fill="#fff"/>
  <path id="Path_2" data-name="Path 2" d="M154.459,133.242H136.334l-2.737,5.529h8.384l.588,1.194-8.322,16.891h5.675l5.485-11.132h0l2.035-4.13.8-1.629.588-1.194H157.2Z" transform="translate(-112.029 -111.732)" fill="#fff"/>
  <path id="Path_3" data-name="Path 3" d="M140.5,53.035h9.054L153.23,45.6l-5.649,3.2-7.081-7.06,0,0,0,0-7.081,7.06-5.649-3.2,3.678,7.432Z" transform="translate(-107.139 -35.003)" fill="#fff"/>
  <path id="Path_4" data-name="Path 4" d="M138.884,299.412H113.332l-2.737,5.529h10.963l4.56,5.767,4.56-5.767h10.942Z" transform="translate(-92.741 -251.075)" fill="#fff"/>
  <g id="Group_2" data-name="Group 2">
    <g id="Group_1" data-name="Group 1" clip-path="url(#clip-path)">
      <path id="Path_5" data-name="Path 5" d="M6.183,450.3a2.133,2.133,0,0,0-1.668-3.45H0v8.182H4.735A2.593,2.593,0,0,0,6.183,450.3m-4.93-.444V448.1H4.515a.876.876,0,0,1,0,1.753Zm4.805,2.588a1.325,1.325,0,0,1-1.323,1.323H1.253v-2.658H4.735a1.331,1.331,0,0,1,1.323,1.335" transform="translate(0 -374.707)" fill="#050605"/>
      <path id="Path_6" data-name="Path 6" d="M51.76,454.521h1.465l1.161-1.95H59l1.161,1.95H61.61l-4.919-8.28Zm6.488-3.2H55.134l1.557-2.618Z" transform="translate(-43.404 -374.199)" fill="#050605"/>
      <path id="Path_7" data-name="Path 7" d="M120.383,451.744h2.878v.61a2.835,2.835,0,0,1-2.449,1.41h-.5a2.832,2.832,0,1,1,0-5.664h.5a2.817,2.817,0,0,1,2.193,1.035l.1.118.963-.81-.1-.115a4.1,4.1,0,0,0-3.157-1.482h-.5a4.091,4.091,0,0,0,0,8.183h.5a4.13,4.13,0,0,0,3.687-2.314l.027-2.225h-4.143Z" transform="translate(-97.464 -374.707)" fill="#050605"/>
      <path id="Path_8" data-name="Path 8" d="M185.146,451.744h2.878v.61a2.835,2.835,0,0,1-2.449,1.41h-.5a2.832,2.832,0,0,1,0-5.664h.5a2.817,2.817,0,0,1,2.193,1.035l.1.118.963-.81-.1-.115a4.1,4.1,0,0,0-3.157-1.482h-.5a4.091,4.091,0,0,0,0,8.183h.5a4.13,4.13,0,0,0,3.687-2.314l.027-2.225h-4.143Z" transform="translate(-151.772 -374.707)" fill="#050605"/>
      <path id="Path_9" data-name="Path 9" d="M249.909,451.744h2.878v.61a2.835,2.835,0,0,1-2.449,1.41h-.5a2.832,2.832,0,0,1,0-5.664h.5a2.817,2.817,0,0,1,2.193,1.035l.1.118.963-.81-.1-.115a4.1,4.1,0,0,0-3.157-1.482h-.5a4.091,4.091,0,0,0,0,8.183h.5a4.13,4.13,0,0,0,3.687-2.314l.027-2.225h-4.143Z" transform="translate(-206.079 -374.707)" fill="#050605"/>
      <path id="Path_10" data-name="Path 10" d="M311.236,455.029h7.1v-1.265H312.5v-2.635h4.817v-1.253H312.5V448.1h5.838v-1.254h-7.1Z" transform="translate(-260.989 -374.707)" fill="#050605"/>
      <path id="Path_11" data-name="Path 11" d="M371.513,453.764v-6.918h-1.265v8.183h6.941v-1.265Z" transform="translate(-310.475 -374.707)" fill="#050605"/>
    </g>
  </g>
</svg>
