<svg xmlns="http://www.w3.org/2000/svg" width="79.731" height="28.001" viewBox="0 0 79.731 28.001">
  <g id="Group_3752" data-name="Group 3752" transform="translate(0.002 0)">
    <path id="Path_31189" data-name="Path 31189" d="M29.546,22.165l.07-.109a5.394,5.394,0,0,1,1.954-1.831,4.53,4.53,0,0,1,1.719-.536A4.658,4.658,0,0,1,36.825,20.7a4.192,4.192,0,0,1,1.489,2.488A4.765,4.765,0,0,1,38.4,24.2a9.526,9.526,0,0,1-.129,1.528,6.161,6.161,0,0,1-1.094,2.606,11.135,11.135,0,0,1-1.37,1.525c-.628.6-1.29,1.15-1.954,1.709-1.2,1-2.4,2-3.563,3.048-.221.2-.439.4-.658.6l-.079.072c-.022-.017-.043-.031-.061-.047-1.4-1.285-2.857-2.5-4.315-3.724-.7-.582-1.39-1.168-2.04-1.8a10.045,10.045,0,0,1-1.327-1.533,6.092,6.092,0,0,1-.962-2.33,8.638,8.638,0,0,1-.147-1.966A4.348,4.348,0,0,1,24.111,19.8a4.8,4.8,0,0,1,3.941.766,5.517,5.517,0,0,1,1.428,1.5l.073.108" transform="translate(-13.36 -12.93)" fill="#f57513"/>
    <g id="Group_3753" data-name="Group 3753">
      <path id="Path_31177" data-name="Path 31177" d="M102.517,41.36a.09.09,0,0,0,.061.034.1.1,0,0,1,.061.034.187.187,0,0,1,.07.084l.017.017c0,.012.006.018.017.018.059.021.114.044.165.067a1.584,1.584,0,0,1,.166.085l.035.016a4.515,4.515,0,0,1,.463-.008,1.072,1.072,0,0,0,.476-.11.694.694,0,0,0,.348-.269,2.561,2.561,0,0,0,.227-.438,1.019,1.019,0,0,0,.1-.4q.01-.218.01-.454v-.369a3.155,3.155,0,0,0-.017-.337c0-.022.006-.092.017-.211a.743.743,0,0,1,.052-.244c.079-.2.2-.312.348-.329s.255-.025.317-.025a.564.564,0,0,1,.227.059.264.264,0,0,1,.1.109c.022,0,.036.022.036.067a.893.893,0,0,0,.079.211.581.581,0,0,1,.061.21,2.586,2.586,0,0,1,0,.412c-.012.129-.017.255-.017.379v.1a.85.85,0,0,0-.035.252.917.917,0,0,1-.036.254.453.453,0,0,1-.009.066.5.5,0,0,0-.009.067,1.921,1.921,0,0,1-.13.682,2.2,2.2,0,0,1-.271.53,2.3,2.3,0,0,1-.383.4,2.428,2.428,0,0,1-.471.269,1.252,1.252,0,0,1-.238.1c-.079.021-.159.044-.252.066a2.932,2.932,0,0,1-.7.084,3.882,3.882,0,0,1-.644-.051.358.358,0,0,1-.159-.034,2.209,2.209,0,0,0-.238-.083c-.079-.023-.165-.051-.27-.085h-.016a.429.429,0,0,0-.052-.084c-.025,0-.03.011-.018.033s.006.028-.017.017a.461.461,0,0,1-.121-.084.436.436,0,0,0-.14-.085.049.049,0,0,0-.035-.016.471.471,0,0,1-.1-.084c-.029-.034-.067-.073-.113-.118a1.734,1.734,0,0,1-.383-.657,3.347,3.347,0,0,1-.175-.808q-.052-.638-.044-1.379t.01-1.666c0-.225,0-.531.009-.92s0-.755-.027-1.1a.222.222,0,0,0-.165-.185,2.146,2.146,0,0,1-.218-.067h-.07a1.429,1.429,0,0,0-.238.016l-.182.034h-.065a.7.7,0,0,1-.454-.2.624.624,0,0,1-.173-.388.731.731,0,0,1,.139-.4.545.545,0,0,1,.453-.23h.732q.3-.016.262-.383V32.708c0-.191,0-.339-.01-.446a1.128,1.128,0,0,1,.027-.312.513.513,0,0,1,.435-.4.422.422,0,0,1,.183-.034.558.558,0,0,1,.165.017.2.2,0,0,1,.1.067.2.2,0,0,0,.106.067l.034.034a.437.437,0,0,0,.1.169.418.418,0,0,1,.1.2.13.13,0,0,0,.018.067.145.145,0,0,1,.017.068c.023.122.017.2-.017.23s-.029.083.017.159a.129.129,0,0,0,.008.042.148.148,0,0,1,.01.043,1.237,1.237,0,0,1,.009.244c-.006.077-.009.153-.009.244v.23c0,.1,0,.192.009.294s.01.189.01.262v.125q.051.153.317.153h1.951a.553.553,0,0,1,.436.134.637.637,0,0,1,.175.438.526.526,0,0,1-.175.479.81.81,0,0,1-.436.16h-2.039c-.151,0-.226.113-.226.336q-.036.536-.027,1c.006.307,0,.623-.025.96a.318.318,0,0,0,.035.151v1.953a3.2,3.2,0,0,0,.043.742,2.509,2.509,0,0,0,.2.589V41.2a.046.046,0,0,0,.017.034.135.135,0,0,0,.017.084c0,.034.013.051.036.051M99.554,34.8c0-.034-.006-.051-.017-.051,0,.034.006.051.017.051m.159-.27v-.051a.029.029,0,0,1-.017.025c-.012.006-.006.015.017.025m0,.572c0,.045.006.05.017.016s0-.039-.017-.016m.1-.118c.046.044.064.048.052.008s-.029-.041-.052-.008m.087-.421c.023.011.035,0,.035-.026s0-.036-.017-.025-.029.039-.017.051m.035-.1a.044.044,0,0,0,.044-.025.309.309,0,0,1,.026-.059.049.049,0,0,1-.018-.034c0-.011-.011-.017-.035-.017.023.034.023.059,0,.077a.043.043,0,0,0-.017.059m.175.606v-.05a.028.028,0,0,1-.017.025c-.012.005-.006.014.017.025m.069.034c0-.023.012-.028.035-.017a.144.144,0,0,1,.026-.185.123.123,0,0,0,.026-.167c.046-.024.059-.051.035-.085a.258.258,0,0,0-.106.211c-.011.106-.017.189-.017.244m.159-.522c-.035.01-.044.022-.027.034s.027,0,.027-.034m0,.488c-.024.023-.024.034,0,.034s.023-.011,0-.034m0-.658.07.034a.035.035,0,0,1-.007-.027.036.036,0,0,1,.016-.024.056.056,0,0,0,.026-.05.257.257,0,0,1-.07-.051.17.17,0,0,1-.009.067l-.026.05m.086.337-.017-.016c-.024.011-.029.022-.017.032s.023.006.034-.017m.07-.337c-.023,0-.034-.008-.034-.025s-.006-.013-.017.008c.011,0,.02.009.026.026s.013.015.026-.009m.82-.185c-.011.044-.006.055.017.034s.017-.034-.017-.034m.1.977c-.023.011-.036.011-.036,0s-.01-.018-.035-.018c-.011.034-.006.048.017.042a.126.126,0,0,0,.053-.025m-.017-3.468c0-.034-.006-.051-.018-.051,0,.033.006.051.018.051m.07.067c.034,0,.052-.023.052-.067h-.052Zm0,5.234c.057,0,.086-.005.086-.016-.023-.011-.029-.025-.017-.042a.1.1,0,0,0,.017-.058c-.012,0-.017,0-.017-.009s-.006-.008-.017-.008c.023.032.023.056,0,.067a.111.111,0,0,0-.052.067m.087,5c0-.022-.006-.036-.017-.042a.129.129,0,0,1-.035-.025c0,.044.017.067.052.067m.052-7.71c0-.022,0-.036.01-.042a.065.065,0,0,0,.009-.041h-.07c0,.057.017.084.052.084m-.052,2.475h.035c0-.034-.011-.051-.035-.051Zm.1-4.981a.058.058,0,0,0-.018-.05.063.063,0,0,0-.052-.017.059.059,0,0,0,.018.05.063.063,0,0,0,.052.017m-.034,4.764h.034c-.023-.022-.034-.022-.034,0m.034-.135c.011-.034.023-.037.035-.009s.029.031.053.009a.075.075,0,0,0-.026-.067q-.026-.016-.062-.034a.087.087,0,0,1-.017.042c-.012.016-.006.038.017.059m.017-1.716c0,.056.012.092.035.108a.636.636,0,0,1,.07.059.133.133,0,0,1,.044-.051.055.055,0,0,0,.026-.05c-.035.011-.064,0-.087-.042s-.052-.048-.087-.025m.1-2.9h-.07c0,.044.011.058.035.041a.05.05,0,0,1,.037-.01.049.049,0,0,1,.033.019c.011.022.006.031-.018.025s-.029,0-.017.025a.028.028,0,0,0,.052,0,.109.109,0,0,1,.049-.051c-.035,0-.04-.022-.017-.068h-.052c0-.011.011-.028.035-.05a.041.041,0,0,1-.044-.025c-.006-.017-.021-.019-.044-.008s-.009.025.009.042a.046.046,0,0,1,.009.059m-.052,1.363.061.06.061.059a.177.177,0,0,1-.035-.143.166.166,0,0,0-.018-.126.13.13,0,0,1-.043.067q-.026.017-.026.083m.018,3.922a.371.371,0,0,1-.01.077.049.049,0,0,0,.026.061.148.148,0,0,0,.061-.077.075.075,0,0,0-.009-.092.048.048,0,0,1-.027.032.051.051,0,0,1-.043,0m.052-1.986a.084.084,0,0,0,.018-.092.116.116,0,0,0-.052-.077.255.255,0,0,1,.009.109.046.046,0,0,0,.026.059m.018.91a.113.113,0,0,1,.009-.051c.006-.011,0-.018-.027-.018,0,.045.006.069.018.069m.017-1.686c.036-.011.052-.009.052.008s.012.025.034.025a.054.054,0,0,0-.034-.05.036.036,0,0,0-.03,0,.034.034,0,0,0-.022.021m0,.383c.012,0,.017.017.017.051a.216.216,0,0,0,.06-.042c.017-.017.015-.037-.008-.059.011.034,0,.045-.026.034s-.044-.007-.044.016m.07-2.39c0-.023-.006-.037-.017-.042a.09.09,0,0,1-.035-.042.137.137,0,0,0,.052.084m.017,1.666a.134.134,0,0,1-.017-.059.056.056,0,0,0-.017-.041.184.184,0,0,1-.009.058q-.008.026.043.041m.017,8.451a.1.1,0,0,0-.034-.068c-.023.022-.029.043-.017.059a.036.036,0,0,0,.024.015.037.037,0,0,0,.028-.006m-.034-9.51c0-.022,0-.031.008-.025s.015,0,.026-.009c-.023,0-.034,0-.034-.008s-.006-.008-.017-.008a.062.062,0,0,0,.017.051m.017-1.01.017.018.017-.018c.024-.044.012-.057-.035-.034l-.017.017Zm0,3.653c.023,0,.033-.008.026-.025a.037.037,0,0,1,.008-.041c-.023,0-.035.022-.035.067m.087-1.413a.114.114,0,0,1-.017.1c.023.023.04.023.052,0s.036-.027.07-.016a.086.086,0,0,1,0-.077c.012-.028.006-.048-.017-.058-.011.022-.024.033-.034.033a.125.125,0,0,0-.053.018m-.017,8.1c.01.022.017.019.017-.008s-.006-.026-.017.008m.017-6.9c.011.022.021.022.026,0s0-.022-.026,0m.018-.051a.074.074,0,0,0,.052-.017.206.206,0,0,1,.052-.034c-.012-.057-.012-.09,0-.1s.011-.038,0-.084a.8.8,0,0,1-.079.093.149.149,0,0,0-.026.143m.035-1.448c-.024,0-.035.006-.035.017.023,0,.035-.005.035-.017m-.035.589h.052c0-.044-.017-.061-.052-.05Zm0,.169c.023.022.031.022.026,0s-.015-.021-.026,0m.017-.536a.107.107,0,0,1,.07.018c-.012-.022-.008-.035.009-.042s.015-.014-.009-.025c-.012.023-.023.025-.034.008a.045.045,0,0,0-.036-.025Zm.053-.319a.027.027,0,0,0-.017-.025c-.013-.006-.017,0-.017.025.01-.011.017-.011.017,0s.006.011.017,0m.017.589q0-.018.018,0a.03.03,0,0,0-.009-.026.032.032,0,0,0-.027-.009c0,.023.006.034.017.034m0,8.18a.05.05,0,0,0,.044-.017.087.087,0,0,1,.043-.033c-.023,0-.035,0-.035-.008s-.013-.008-.035-.008a.093.093,0,0,1-.018.067m.018-7.49h.052a.051.051,0,0,1,0-.059c.011-.017,0-.032-.036-.042a.136.136,0,0,1-.008.051.112.112,0,0,0-.009.05m.121-.758c.047,0,.07-.005.07-.017-.046,0-.07.007-.07.017m.159,1.027c.012.022.02.022.026,0s0-.022-.026,0m.261,7.323a.1.1,0,0,1,.061.017.061.061,0,0,0,.062,0,.133.133,0,0,0,.026-.11.4.4,0,0,0-.026-.11q0,.086-.062.1c-.041.01-.061.044-.061.1m.489.017a.074.074,0,0,0,.009.077c.018.028.038.031.062.008-.023-.044-.016-.058.026-.041a.072.072,0,0,0,.1-.025c-.023,0-.032-.006-.026-.017s0-.017-.008-.017a.4.4,0,0,0-.079.008.414.414,0,0,1-.079.009m.159-7.828c-.012.057.011.084.07.084-.012-.022.013-.034.07-.034a.157.157,0,0,1-.043-.059.083.083,0,0,0-.044-.041c.013.032-.006.05-.052.05m.034-.153c-.011.034,0,.051.027.051s.037-.016.026-.051c-.023.011-.035.011-.035,0s-.006-.011-.017,0m.036-.169c.059.011.087.04.087.084a.077.077,0,0,0,.07.084q.068-.067,0-.109a.555.555,0,0,1-.106-.077.109.109,0,0,1,.01-.042c.006-.018,0-.02-.027-.008.012.022.009.034-.008.034s-.026.011-.026.034m.348.808c.036-.034.029-.051-.017-.051,0,.034.006.051.017.051m0,6.869c.023-.023.017-.045-.017-.067,0,.044.006.067.017.067m.017.472.07.033a.135.135,0,0,1,.027-.059c.017-.028.009-.048-.027-.059.011.034.006.051-.017.051a.056.056,0,0,0-.053.034m.14-.307a.1.1,0,0,0-.017-.068c0,.034-.017.045-.052.034s-.052-.011-.052,0a.171.171,0,0,0,.122.034m.069-.169c.036,0,.053-.011.053-.034h-.036c0,.011,0,.018-.01.018s-.009.005-.009.017m.087-7.39c.023,0,.034-.005.034-.016s.013-.011.036,0a.065.065,0,0,0-.036-.067c0,.022-.006.036-.017.041a.044.044,0,0,0-.017.041m.209.354a.608.608,0,0,0,.036-.084A.075.075,0,0,0,104.28,35c-.012.021-.026.05-.043.084a.057.057,0,0,0-.007.047.06.06,0,0,0,.032.037m.192,6.7c.011,0,.021-.011.026-.033s0-.034-.026-.034c.011.022.009.038-.009.051s-.015.016.009.016m.159-.3a.07.07,0,0,1,0,.067.032.032,0,0,0,0,.03.034.034,0,0,0,.022.021q.017-.033.026-.009c.006.016.02.021.044.009a.123.123,0,0,1,0-.126c.023-.039-.006-.036-.087.009m.069.471a.212.212,0,0,0,.086-.025c.035-.017.041-.037.017-.058-.023.033-.046.041-.07.025a.169.169,0,0,1-.052-.059q-.018.033,0,.051a.1.1,0,0,1,.017.067m.017-.96a.182.182,0,0,0,.1.093.225.225,0,0,1,.1.077c-.046.09-.029.146.053.168a.43.43,0,0,1,.226-.008.5.5,0,0,0,.244-.008.139.139,0,0,1-.044-.077.286.286,0,0,0-.044-.093,1.5,1.5,0,0,1-.287.008c-.111-.006-.155-.052-.131-.143-.059.011-.088,0-.088-.043s-.024-.059-.069-.059c0,.023-.008.037-.026.042a.04.04,0,0,0-.025.041m.1-1.514c.011,0,.029.011.052.034a.135.135,0,0,0,.017-.085c-.047.023-.07.039-.07.051M104.925,41c.012-.022,0-.037-.026-.041s-.037,0-.026.025c.011,0,.017,0,.017.01s.011.008.035.008m.1.185c.047,0,.07-.01.07-.033-.023-.034-.046-.022-.07.033" transform="translate(-64.132 -20.732)" fill="#050605"/>
      <path id="Path_31178" data-name="Path 31178" d="M123.6,34.89c-.023.022-.017.039.017.051s.053.028.053.051c0,.113,0,.258-.009.438s-.012.367-.017.563-.009.388-.009.572v.479q-.018.858-.018,1.709t.018,1.609a1.528,1.528,0,0,0,.009.37c.017.124.037.236.06.336a.054.054,0,0,1,0,.058.317.317,0,0,0-.035.077l.017.016a.015.015,0,0,0,0,.013.016.016,0,0,0,.013,0,.43.43,0,0,1,.1.067,1.371,1.371,0,0,1,.1.1.448.448,0,0,0,.1.084l.035.017a.5.5,0,0,0,.278-.042,1.233,1.233,0,0,1,.332-.093.068.068,0,0,1,.069.041.1.1,0,0,0,.053.058.041.041,0,0,0,0-.067c-.025-.022-.017-.039.017-.05a1.175,1.175,0,0,1,.34.05.481.481,0,0,1,.252.168.6.6,0,0,1,.087.438.737.737,0,0,1-.148.251.619.619,0,0,1-.444.2.044.044,0,0,1-.069,0c-.257-.044-.5-.077-.733-.1s-.464-.044-.7-.067c-.023,0-.037.006-.044.017a.047.047,0,0,1-.043.017,1.95,1.95,0,0,0-.488-.008c-.2.017-.367.031-.506.041-.1.012-.206.019-.3.025a2.825,2.825,0,0,0-.34.043c-.128.022-.273.038-.436.051a1.345,1.345,0,0,1-.436-.034.458.458,0,0,1-.305-.193.6.6,0,0,1-.079-.43.4.4,0,0,1,.079-.261.5.5,0,0,1,.175-.135.6.6,0,0,1,.191-.05c.064-.005.114-.008.148-.008.093,0,.2.005.322.016s.247.028.375.051a.423.423,0,0,0,.332-.067.7.7,0,0,0,.208-.421,2.073,2.073,0,0,0,.1-.589c.006-.213,0-.421-.009-.622V36.026a1.794,1.794,0,0,0-.018-.261c-.035-.168-.066-.3-.1-.395a.911.911,0,0,0-.165-.3.441.441,0,0,0-.331-.067q-.244.016-.418.033h-.036a.572.572,0,0,1-.252.051,1,1,0,0,1-.271-.034c-.023-.044-.017-.067.018-.067a.091.091,0,0,1-.087.018.648.648,0,0,0-.087-.034.043.043,0,0,1-.026-.008.035.035,0,0,0-.026-.009.738.738,0,0,1-.1-.178.652.652,0,0,1-.044-.243.824.824,0,0,1,.052-.23.486.486,0,0,1,.1-.143.016.016,0,0,0,.013,0,.015.015,0,0,0,0-.013l.209-.1.034-.017a1.684,1.684,0,0,1,.532-.051c.181.011.317.023.41.034a2.363,2.363,0,0,0,.279.051,2.6,2.6,0,0,0,.313.017c.152-.011.3-.025.445-.041a3.562,3.562,0,0,0,.375-.061.526.526,0,0,1,.322.077.726.726,0,0,1,.182.244c.011.067.024.153.036.252a1.131,1.131,0,0,1-.017.336c0,.012-.009.022-.026.034s-.027.006-.027-.016Zm-2.945,7.154c.023,0,.032-.008.026-.025a.074.074,0,0,1,.009-.06c-.023.012-.034.009-.034-.009s-.012-.013-.035.009c.046,0,.058.028.035.084m.052.153c.023,0,.036,0,.036-.016a.046.046,0,0,1,.017-.034h-.053Zm.244-.383c-.024-.034-.041-.044-.053-.034s.006.023.053.034m.069.438a.145.145,0,0,0,.087-.017.046.046,0,0,0-.051-.027.044.044,0,0,0-.036.044m.052-.4q.036.033.036,0t-.036,0m.106.117c0-.011,0-.016.008-.016s.008-.006.008-.018-.017,0-.017-.008-.007-.008-.017-.008c-.025.034-.017.05.017.05m.174,0c0,.011.006.011.017,0s0-.016.008-.016.009-.006.009-.018h-.034Zm.1-.168a.141.141,0,0,1-.017-.058c0-.018-.011-.031-.034-.042a.064.064,0,0,0-.018.077.048.048,0,0,0,.029.028.051.051,0,0,0,.041,0m-.017.067c.013.024.021.021.027-.008s0-.025-.027.008m1.27-10.638a.945.945,0,0,1,.523.135,1.226,1.226,0,0,1,.348.336.724.724,0,0,1,.069.244,2.612,2.612,0,0,1,.018.31.243.243,0,0,1-.009.051.238.238,0,0,0-.01.051c-.023.056-.04.1-.052.135s-.029.077-.052.134a.114.114,0,0,0-.026.05.1.1,0,0,1-.026.051.958.958,0,0,1-.609.354,1.04,1.04,0,0,1-.349.008.87.87,0,0,1-.436-.21,1.07,1.07,0,0,1-.262-.311,1.311,1.311,0,0,1-.1-.379.892.892,0,0,1,.079-.4,1.134,1.134,0,0,1,.238-.311,1.345,1.345,0,0,1,.278-.176.872.872,0,0,1,.384-.077m-.628,10.184a.1.1,0,0,1-.026.067.113.113,0,0,0-.026.069.172.172,0,0,0,.121.051.19.19,0,0,0,.035-.11.123.123,0,0,0-.035-.093c0,.023-.009.028-.025.017a.033.033,0,0,0-.044,0m-.017.536c.023-.012.035-.006.035.016s.006.034.018.034a.052.052,0,0,1,.013-.04.056.056,0,0,1,.039-.019c.034-.006.052-.031.052-.077a.139.139,0,0,1-.079.041.16.16,0,0,0-.079.044m0,.3a.112.112,0,0,1,.069.05.07.07,0,0,0,.07.034.063.063,0,0,0,.052-.017.059.059,0,0,0,.018-.051c-.059-.022-.122-.044-.192-.067a.035.035,0,0,1-.008.025.035.035,0,0,0-.01.025m.244-.891c0-.022-.014-.038-.044-.043s-.043,0-.043.008a.051.051,0,0,1,.035.017.072.072,0,0,0,.053.018m.017.6c.023-.022.027-.038.009-.05a.125.125,0,0,1-.044-.051c-.035.034-.024.068.035.1m-.052-.756c0,.056.006.064.017.024s.006-.048-.017-.024m.035.487c.024-.022.044-.022.061,0s.031.023.043,0c-.023,0-.026-.008-.008-.025a.045.045,0,0,0,.008-.059.725.725,0,0,1-.087.034c-.035.011-.04.028-.017.051m.036-7.524c0-.034-.011-.051-.036-.051a.027.027,0,0,1,.009.034c-.006.011,0,.017.027.017m.052,6.7a.022.022,0,0,1,0-.034c.011-.011.006-.016-.017-.016,0,.034.006.051.017.051m.035.724c-.013-.034-.008-.057.009-.067s.015-.028-.009-.051a.048.048,0,0,0-.039.013.044.044,0,0,0-.013.038.067.067,0,0,0,.052.067m.052.252c-.034-.034-.052-.028-.052.016-.023.024-.017.028.017.018s.047-.022.034-.034m.017.2a.065.065,0,0,1,.01-.042.032.032,0,0,0,.009-.025.051.051,0,0,0-.036-.017c-.023,0-.034.006-.034.017q.034,0,.026.025c-.006.017,0,.031.025.042m-.034-3.35c.069,0,.1-.022.1-.067-.07-.011-.1.012-.1.067m.034,3.4h.035q0-.034-.035,0m.086-.825a.062.062,0,0,1,.044-.017c.017,0,.02.017.009.05.07.023.1,0,.1-.084-.059.023-.09.021-.1-.008a.144.144,0,0,0-.043-.077.135.135,0,0,1-.009.1c-.017.044-.021.056-.01.034m0-1.886.07.034c0-.044.02-.056.061-.034s.067.011.079-.033c-.035.011-.052.005-.052-.017a.149.149,0,0,0-.017-.067c-.046,0-.079.015-.087.043a.209.209,0,0,1-.053.077m.053-4.948c0-.024.012-.034.036-.034a.032.032,0,0,0,.026-.008.029.029,0,0,0,.009-.025.058.058,0,0,0-.07.017c-.023.022-.023.038,0,.051m.087.185a.456.456,0,0,0,.14-.051.061.061,0,0,0-.079-.008.156.156,0,0,0-.06.059M122.813,36a.12.12,0,0,0,.1-.051.123.123,0,0,0-.087-.034.132.132,0,0,1-.017.084m.07.307v-.034c-.012,0-.017,0-.017-.008s-.006-.008-.017-.008c0,.033.011.051.036.051m-.036,4.494c.023,0,.038,0,.043.01a.206.206,0,0,0,.044.024.17.17,0,0,1-.017-.077.062.062,0,0,0-.035-.059c.01.034.008.054-.01.059a.038.038,0,0,0-.026.041m.017-4.072a.086.086,0,0,1,.079.041.146.146,0,0,0,.079.059.243.243,0,0,0,.087-.136.241.241,0,0,0-.1-.051.364.364,0,0,1-.113-.049.106.106,0,0,1-.017.059.131.131,0,0,0-.017.077m.017,2.979c.022.012.035.022.035.034s.011.016.034.016a.127.127,0,0,0,0-.093.133.133,0,0,1-.017-.077c-.035,0-.052.005-.052.016.022.011.028.025.017.042a.1.1,0,0,0-.017.058m.017-5.151c.024,0,.035,0,.035.008s.013.008.036.008a.054.054,0,0,1-.017-.042c0-.017-.011-.025-.034-.025a.07.07,0,0,1-.018.051m0,4.8a.454.454,0,0,1,.132.025.1.1,0,0,1,.079.109.107.107,0,0,0,.087-.067.047.047,0,0,1-.026-.058.047.047,0,0,0-.026-.059.22.22,0,0,1-.159-.051.131.131,0,0,1-.044.051.118.118,0,0,0-.044.051m.052-2.929a.094.094,0,0,1-.009-.067c0-.022,0-.028-.026-.017a.046.046,0,0,0-.01.051.041.041,0,0,0,.044.034m-.034,5.538c.023.023.04.034.052.034v-.051a.072.072,0,0,0-.052.016m.086-7.575c0-.023.006-.034.017-.034s.013-.01,0-.034c-.034,0-.052-.006-.052-.017,0,.067.011.1.034.084m-.017,1.916a.059.059,0,0,1,.052.025c.011.016.034.019.069.008a.158.158,0,0,1-.017-.077.155.155,0,0,0-.017-.077.111.111,0,0,1-.053.051.067.067,0,0,0-.034.067m.14,2.491c0-.044-.012-.062-.036-.051,0,.033.012.051.036.051m.035-2.323c-.013,0-.017-.008-.017-.025s-.012-.019-.036-.008a.056.056,0,0,0,.026.051c.017.012.026.006.026-.017m.1,2.376c-.023.012-.037.006-.044-.016s-.014-.022-.026,0c.012,0,.023.008.036.026s.023.014.035-.009m.035,3.013a.016.016,0,0,1,.017.018c0,.011.006.016.018.016a.223.223,0,0,1,.1-.05.164.164,0,0,1,.1,0,.461.461,0,0,1,.017-.127c.011-.038-.006-.064-.052-.077a.231.231,0,0,1-.1.118.37.37,0,0,0-.113.1m.209.068a.12.12,0,0,0,.079.008.063.063,0,0,1,.06.009c0,.089-.035.134-.1.134a.082.082,0,0,0-.06-.008c-.018.006-.033,0-.044-.025a.048.048,0,0,1,.009-.059c.017-.016.014-.031-.009-.041-.011.021-.046.021-.1,0a.129.129,0,0,0,.052.108q.053.044,0,.127a.231.231,0,0,0,.044.06c.017.016.037.014.059-.009-.034-.034-.052-.056-.052-.067a.218.218,0,0,1,.175-.059.124.124,0,0,0,.14-.077c-.012-.024-.026-.034-.044-.034s-.026-.011-.026-.034a.119.119,0,0,1,.07-.134c-.059.012-.108.023-.149.033a.171.171,0,0,0-.1.068m-.156-9.336c.036,0,.053,0,.053-.017a.076.076,0,0,0-.053.017m.018,3.35c0-.011.006-.016.017-.016V35.9h-.036c.024.022.029.034.018.034m0-1.212c.046.023.069.011.069-.034-.046,0-.069.011-.069.034m.036,4.376c.023-.044.023-.067,0-.067a.05.05,0,0,1-.017.034c-.011.011-.006.021.017.033m-.017,2.273c.07-.011.1,0,.1.041a.086.086,0,0,0,.043.093.07.07,0,0,1,.017-.051.062.062,0,0,0,.017-.051.1.1,0,0,0-.079-.05.1.1,0,0,1-.079-.051.1.1,0,0,0-.017.068m.087-6.683a.1.1,0,0,1,.069.017v-.051a.1.1,0,0,0-.069.034m.139,6.82a.041.041,0,0,0-.043.025c-.006.017-.021.02-.044.009.012.055.037.07.079.041a.226.226,0,0,0,.079-.077.138.138,0,0,1-.043-.077.306.306,0,0,0-.027-.077.222.222,0,0,1-.009.077.14.14,0,0,0,.009.077m.07.724c0-.022.009-.034.026-.034s.027-.011.027-.033c-.024-.01-.041-.01-.053,0s-.029.006-.052-.017c.022.057.04.085.052.085m.1.033c-.012,0-.017,0-.017-.008s-.013-.008-.035-.008c-.013.023-.006.036.017.041s.034,0,.034-.025m.087-.756c.023,0,.029.008.017.025a.036.036,0,0,1-.024.015.037.037,0,0,1-.028-.006c0,.022.006.032.017.032s.012.012,0,.034c.047-.012.073-.008.079.007a.168.168,0,0,0,.043.06.086.086,0,0,0,.018-.093.206.206,0,0,0-.053-.093c.012.023,0,.025-.026.009s-.043-.015-.043.008m.209.307c-.013-.011-.018-.039-.018-.084a.255.255,0,0,1-.079-.009c-.018-.005-.038,0-.062.025s0,.053.026.059a.424.424,0,0,1,.079.025c-.024.023-.017.045.017.067a.394.394,0,0,0,.165-.034c.052-.021.062-.072.026-.153a.056.056,0,0,0,.053-.034.16.16,0,0,0-.113.06.217.217,0,0,1-.1.077m.034.27.159.051-.036-.067a.053.053,0,0,1,.017-.067.21.21,0,0,0-.061.042.217.217,0,0,1-.079.041m.052.169c.034.012.049.006.043-.017a.3.3,0,0,0-.025-.067c-.014.012-.017.04-.017.084m.487-.336c-.035,0-.052-.011-.052-.034a.028.028,0,0,0-.008-.025.031.031,0,0,0-.026-.008c.023.067-.006.1-.086.093a.139.139,0,0,0-.159.077c.045.011.079,0,.087-.026s.04-.036.086-.025a.092.092,0,0,0,.071.093.094.094,0,0,0,.1-.008.27.27,0,0,1-.053-.067c.025-.011.033-.022.027-.033s0-.018.026-.018a.081.081,0,0,0,.1.024c.047-.015.079,0,.087.061,0-.012.011-.028.035-.051a.39.39,0,0,0-.122-.185q-.035.135-.122.135m.332.32a.289.289,0,0,1,.159.084.07.07,0,0,0-.006-.058.074.074,0,0,0-.048-.035.094.094,0,0,0-.1.009" transform="translate(-77.735 -20.54)" fill="#050605"/>
      <path id="Path_31179" data-name="Path 31179" d="M138.711,46.246c.011-.022,0-.031-.043-.025s-.049-.008-.026-.042c.29.034.476-.111.555-.437a2.809,2.809,0,0,0,.062-.312,2.03,2.03,0,0,0,.009-.429V41.735q0-.383.017-.749a2.955,2.955,0,0,0-.069-.766c-.023-.056-.047-.115-.069-.177a.307.307,0,0,0-.1-.143.7.7,0,0,0-.269-.1,1.547,1.547,0,0,0-.271-.008c-.094.006-.191.015-.3.025a1.08,1.08,0,0,1-.332-.017,1.147,1.147,0,0,1-.348-.118q-.159-.084-.175-.388a.43.43,0,0,1,.122-.412.917.917,0,0,1,.366-.176,1.037,1.037,0,0,1,.313-.016c.079.011.221.028.419.05.079.012.159.026.238.043a.485.485,0,0,0,.238-.009c.023,0,.035,0,.035.009s.006.008.018.008l.348-.041.348-.042c.29-.044.476.023.555.2a.426.426,0,0,1,.07.21V39.4c-.012.022-.033.028-.061.016s-.044-.005-.044.017a.283.283,0,0,1,.106.034v.1c.023.012.046,0,.069-.025s.047-.032.07-.008a.034.034,0,0,1,.007.027.035.035,0,0,1-.015.023c-.018.012-.021.034-.009.067.023.012.044,0,.061-.025a.055.055,0,0,0-.009-.077c.023-.011.052,0,.086.033.011-.044.011-.059,0-.041s-.029.013-.052-.008a.33.33,0,0,0,.069-.1.674.674,0,0,1,.035-.118c.023-.021.038-.027.044-.017s.026.012.061,0c.012-.021.008-.031-.01-.025s-.021-.008-.009-.042a.037.037,0,0,1,.026.008.036.036,0,0,0,.026.009c-.023-.044,0-.084.069-.118a1.49,1.49,0,0,0,.159-.084,2.915,2.915,0,0,1,.9-.454,5.727,5.727,0,0,1,.671-.153,3.942,3.942,0,0,1,1.032,0,3.59,3.59,0,0,1,1.081.32c.116.055.238.123.375.2a1.773,1.773,0,0,1,.34.252,1.04,1.04,0,0,0,.113.1.147.147,0,0,1,.044.05.043.043,0,0,0,.013.039.047.047,0,0,0,.04.013.685.685,0,0,1,.173.2.014.014,0,0,0,0,.013.015.015,0,0,0,.013,0l.018.016a.075.075,0,0,1,.017.051.029.029,0,0,0,.009.025.032.032,0,0,0,.026.008l.017.015a.992.992,0,0,0,.1.211,1.134,1.134,0,0,1,.1.211.1.1,0,0,1,.018.067.2.2,0,0,0,.025.11.407.407,0,0,1,.042.093,4.513,4.513,0,0,1,.123,1.073c0,.376-.006.76-.017,1.15v2.206q0,.237.009.447a2.7,2.7,0,0,0,.043.395.9.9,0,0,0,.061.185.474.474,0,0,0,.1.153.335.335,0,0,0,.219.118,1.444,1.444,0,0,0,.374-.017.033.033,0,0,1,.026.008.03.03,0,0,1,.009.025.357.357,0,0,1-.131.153c-.063.044-.061.1.009.169.035-.011.044-.031.026-.059a.1.1,0,0,1-.009-.093.12.12,0,0,0,.052-.042c.013-.016.029-.014.053.009-.024-.112.017-.172.121-.177a1.343,1.343,0,0,0,.28-.041.074.074,0,0,0,.034-.009.082.082,0,0,1,.036-.008.518.518,0,0,1,.348.143.622.622,0,0,1,.159.244.543.543,0,0,1-.07.438,1.076,1.076,0,0,1-.252.21,1.038,1.038,0,0,1-.427.093,2.774,2.774,0,0,1-.505-.043,4.1,4.1,0,0,0-.522-.057,5.556,5.556,0,0,0-.645-.034c-.232,0-.448.006-.644.017-.129,0-.282.008-.463.025a1.966,1.966,0,0,0-.374.059c-.079.012-.159.019-.229.025a.34.34,0,0,1-.174-.025,1.46,1.46,0,0,1-.418-.153L143.457,47a.072.072,0,0,0-.043-.041.04.04,0,0,1-.026-.043v-.013a.093.093,0,0,1-.065-.037.086.086,0,0,1-.014-.072.223.223,0,0,0-.026-.143.044.044,0,0,1-.017-.034q0-.32.148-.413a.8.8,0,0,1,.375-.109,1.171,1.171,0,0,1,.532.05.622.622,0,0,0,.427.017.442.442,0,0,0,.209-.235,1.158,1.158,0,0,0,.1-.414c.013-.153.018-.316.018-.5a.047.047,0,0,1,.017-.033.042.042,0,0,0,.017-.034.286.286,0,0,0,0-.143.466.466,0,0,1-.017-.126,1.072,1.072,0,0,0,.017-.194.594.594,0,0,0-.034-.195V42.055c0-.214,0-.41-.009-.59a2.018,2.018,0,0,0-.044-.4,3.049,3.049,0,0,0-.062-.312,1.783,1.783,0,0,0-.1-.245.049.049,0,0,1-.016-.033v-.034a.145.145,0,0,0-.053-.159.7.7,0,0,1-.122-.093.036.036,0,0,0-.01-.025c-.006-.005-.009-.019-.009-.041v-.067c-.023-.021-.043-.025-.06-.009s-.037.015-.061-.008a1.754,1.754,0,0,0-.514-.353,3.492,3.492,0,0,0-.706-.2,3.078,3.078,0,0,0-.732.017,3.637,3.637,0,0,0-.627.153,1.339,1.339,0,0,0-.436.23q-.174.144-.317.278c-.048.045-.093.087-.14.126a.271.271,0,0,0-.088.177.049.049,0,0,0-.017.033c-.023.012-.031.026-.026.041s0,.025-.026.025l-.018.018-.017.015a1.6,1.6,0,0,0-.1.3,1.246,1.246,0,0,1-.1.277v.067a.179.179,0,0,1,.017.084,6.839,6.839,0,0,0-.1,1.061q-.01.555-.01,1.093v1.171c0,.219,0,.421.01.605s.014.323.026.412c.023.067.05.153.079.252a.36.36,0,0,0,.148.218.325.325,0,0,0,.209.067,1.478,1.478,0,0,0,.262-.025c.093-.018.186-.036.278-.06a1.153,1.153,0,0,1,.263-.032.489.489,0,0,1,.54.521c.024.2-.008.333-.1.4a1.9,1.9,0,0,1-.322.177.861.861,0,0,1-.288.025c-.121-.006-.259-.016-.41-.034s-.3-.036-.452-.057-.284-.04-.4-.051a7.2,7.2,0,0,0-1.046.008q-.471.042-1.032.11a.1.1,0,0,1-.07.017.277.277,0,0,0-.079-.017.168.168,0,0,0-.079.034,1.836,1.836,0,0,1-.218-.017,1.021,1.021,0,0,1-.253-.067.485.485,0,0,1-.209-.177.639.639,0,0,1-.087-.362.46.46,0,0,1,.166-.4.617.617,0,0,1,.41-.1,1.341,1.341,0,0,1,.33.058.909.909,0,0,0,.349.041.352.352,0,0,0-.07.135.112.112,0,0,0,.07-.05c.012-.023.046-.028.1-.018m-.663-7.086c0-.056-.011-.077-.035-.067s0,.044.035.067m.053-.1c.023.022.034.022.034,0s-.012-.022-.034,0m.366.118q-.052-.032-.044,0c0,.022.021.022.044,0m.3,7.036c.011.023.017.019.017-.009s-.006-.025-.017.009m.889-6.868c-.025,0-.035.006-.035.016.024,0,.035,0,.035-.016m-.017-.556c.011.045.02.051.026.017s0-.04-.026-.017m.1.119c.023,0,.047-.041.069-.119-.022,0-.033,0-.033-.008s-.013-.015-.036-.025a.174.174,0,0,1,0,.153m.036,4.915q.017.033.026,0c.006-.022,0-.022-.026,0m.086-3.485c.047,0,.079-.011.087-.034a.074.074,0,0,1-.061-.033c-.017-.022-.01-.04.025-.051-.023,0-.038-.008-.043-.025s-.021-.019-.043-.008v.077a.1.1,0,0,0,.034.077m.122,2.828c-.034,0-.052.005-.052.017.034.034.052.027.052-.017m-.034-4.393a.071.071,0,0,0,.069-.034.082.082,0,0,1-.061.009c-.017-.006-.02,0-.009.025m0,1.632c0,.057.006.064.017.026s.006-.048-.017-.026m.034,2.744a.056.056,0,0,0,.052-.034c.011-.022.006-.034-.017-.034Zm.07-3.939v.025c.022.011.035,0,.035-.017s-.006-.028-.017-.017-.006.012-.017,0m.017,1.279c0,.011,0,.015-.009.009s-.009,0-.009.007a.015.015,0,0,0,.013,0,.014.014,0,0,0,0-.012m.053-.892c-.023,0-.035.005-.035.017.023,0,.035-.006.035-.017m-.035.353c.012.023.017.02.017-.008s-.006-.025-.017.008m.017.943a.49.49,0,0,1,.383.067.068.068,0,0,1,.035-.085.1.1,0,0,0,.07.034.079.079,0,0,1-.009-.093c.017-.028.032-.054.043-.077a.06.06,0,0,1-.053-.025c-.011-.017-.034-.02-.069-.008,0,.022.013.036.044.041s.037.025.025.059l-.017.017v.016c-.059-.021-.1-.028-.122-.016a.535.535,0,0,1-.122.034.286.286,0,0,1-.018-.067c0-.011-.023-.011-.07,0,0-.034-.023-.062-.07-.084a.149.149,0,0,1-.008.118.424.424,0,0,0-.043.067m.035,3.181a.03.03,0,0,0-.009-.025.032.032,0,0,0-.026-.009c0,.034.011.045.035.034m.016-3a.03.03,0,0,0-.033-.034.029.029,0,0,0,.008.025.032.032,0,0,0,.025.009m.037,3.147c.012-.033.006-.053-.017-.058s-.023-.026,0-.059c-.034,0-.052.006-.052.018a.048.048,0,0,1,.026.058c-.006.028.008.041.044.041m-.026-5.268c-.006,0-.01.006-.01.017h.018c0-.011,0-.017-.009-.017m.1.37c-.022,0-.034.006-.034.016.024,0,.034-.005.034-.016m0,.622q.088-.033.088.025c0,.039.029.059.087.059l-.052-.05c-.013-.011-.006-.028.017-.051a.046.046,0,0,1-.017-.034.3.3,0,0,0-.087.017c-.036.011-.046.022-.036.033m0-.353h.053c0-.022-.017-.028-.053-.017Zm.017.808c-.01-.011-.017-.011-.017,0a.016.016,0,0,1,.013,0,.015.015,0,0,1,0,.012Zm-.017.307c0,.022.007.033.017.033s.017.013.017.034c.046-.021.075-.021.087,0v-.067a.051.051,0,0,1-.062-.009c-.017-.016-.037-.013-.061.009m.106-.961v-.084c-.012.023-.024.026-.035.008s-.029-.019-.053-.008c.024.057.053.084.088.084m.087.741c.011-.022.008-.035-.009-.042a.09.09,0,0,1-.044-.025c0,.022.006.037.017.041a.153.153,0,0,1,.035.025m-.017-.723a.215.215,0,0,0,.1.1.05.05,0,0,0,.017-.034.128.128,0,0,1,.017-.05.159.159,0,0,0-.06-.042c-.017-.005-.032-.026-.044-.059.012.023.006.033-.017.033s-.03.018-.017.051m.052,1.464c.012.023.017.02.017-.008s-.006-.025-.017.008m.07-.269c-.023.022-.036.028-.036.016h.017a.016.016,0,0,0,.013,0,.015.015,0,0,0,0-.012m.1-1.111a.061.061,0,0,1,.038-.031.064.064,0,0,1,.049.006c.036.018.053,0,.053-.059a.094.094,0,0,1-.079,0,.093.093,0,0,0-.079,0c0,.022,0,.035-.01.041s0,.021.026.042m-.017.1c.023.023.034.023.034,0s-.011-.022-.034,0m.034.674c-.023,0-.034.006-.034.018.023,0,.034-.006.034-.018m.035-.067c-.024,0-.035.005-.035.018.023,0,.035-.006.035-.018m0,.051c.011.034.017.036.017.009s-.006-.031-.017-.009m.017-1c.023.011.035,0,.035-.025s.012-.041.036-.041c-.024.011-.036,0-.036-.017a.031.031,0,0,0-.035-.034c-.024.023-.024.042,0,.058s.023.037,0,.06m.071.961v-.118c-.036,0-.053.019-.053.059s.017.059.053.059m.052-.118a.032.032,0,0,1-.027-.008.029.029,0,0,1-.009-.026.029.029,0,0,0-.008-.026.032.032,0,0,0-.027-.009.041.041,0,0,0,0,.033.043.043,0,0,0,.022.026c.022.017.04.021.052.009m.278-1.226c0,.045-.011.067-.034.067a.177.177,0,0,0-.071-.017.366.366,0,0,1-.1.067.115.115,0,0,1-.121,0,.069.069,0,0,1-.017.051.116.116,0,0,1,.1.051c.023.034.052.034.087,0-.023,0-.035-.008-.035-.025s.012-.031.035-.042a.1.1,0,0,0,.07.034h.106c.023-.01.023-.025,0-.042s-.024-.03,0-.041.037-.025.043-.009a.041.041,0,0,0,.044.025.078.078,0,0,1,.061-.059c.029-.005.043-.031.043-.077-.012,0-.017,0-.017-.008s-.011-.009-.035-.009a.07.07,0,0,1-.069.034Zm-.069.27a.028.028,0,0,1-.01-.034c.006-.011-.009-.011-.044,0q-.015.034,0,.034c.01,0,.012.01,0,.034a.094.094,0,0,0-.079,0c-.017.011-.038.006-.061-.017,0,.023,0,.034-.009.034s-.008.011-.008.033c.033-.011.052-.008.052.009s.023.032.069.042c0-.034.012-.051.035-.051-.023.034-.026.054-.008.06a.039.039,0,0,1,.025.041.12.12,0,0,1-.087.033.065.065,0,0,0,.018.051.065.065,0,0,1,.017.051.051.051,0,0,1-.061.025.049.049,0,0,0-.06.025c.022,0,.033.015.033.043s.012.041.036.041a1.952,1.952,0,0,1,.175-.236.443.443,0,0,1,.261-.134c-.024-.044-.024-.077,0-.084a.106.106,0,0,0,.052-.051l-.1.051c0-.022-.036-.034-.1-.034a.056.056,0,0,1,0,.046.059.059,0,0,1-.035.031.073.073,0,0,1-.087-.008c-.011-.024,0-.034.026-.034s.031-.011.008-.034-.031-.019-.026.009,0,.035-.025.025m-.192.757c.059.012.09.005.1-.017s.026-.034.061-.034c.01-.1-.015-.131-.079-.093a.132.132,0,0,0-.079.143m.035-1.044a.252.252,0,0,1-.018.084.16.16,0,0,1,.07-.041A.072.072,0,0,0,141,39.21c-.023-.011-.037-.014-.044-.008s0,0,.009-.025a.1.1,0,0,0-.069.034m.3-.2q.052.034.052,0t-.052,0m.017.1c.024-.011.035-.005.035.017a.029.029,0,0,0,.009.025.032.032,0,0,0,.026.009c0-.012.01-.015.026-.009s.021,0,.009-.025a.078.078,0,0,1-.043-.043.039.039,0,0,0-.043-.025c0,.022,0,.034-.009.034s-.009.006-.009.017m.087.3h.017c.024-.022.021-.034-.009-.034s-.037.011-.026.034Zm0-.336a.074.074,0,0,0,.06.008c.018,0,.033,0,.043.026-.011.022-.026.025-.043.008s-.02-.008-.009.025c.059,0,.087-.011.087-.034a.381.381,0,0,1-.052-.058.081.081,0,0,0-.071-.026.036.036,0,0,1-.009.026.032.032,0,0,0-.008.025m.069.253c.035-.011.056,0,.062.016a.041.041,0,0,0,.044.034c.012-.055.043-.072.1-.051a.157.157,0,0,1,.1.084.055.055,0,0,1,.017-.034c.012-.011.012-.028,0-.051l-.1-.067c-.033-.023-.069-.013-.1.032a.088.088,0,0,1-.009-.067c0-.022,0-.028-.026-.017.023.044.017.077-.017.084s-.053.024-.053.034m.035.307c.024.022.044.025.062.008a.231.231,0,0,0,.044-.06.143.143,0,0,1-.061.017.05.05,0,0,0-.044.034m.14-.067c.022.023.04.025.052.009s.017-.014.017.008c-.047,0-.069.017-.069.051a.169.169,0,0,1,.1.041c.033.028.063.026.086-.008q-.1,0-.1-.067c.034,0,.052-.006.052-.017a.04.04,0,0,0-.043-.025.038.038,0,0,1-.043-.007.042.042,0,0,0,.01-.044c-.006-.016,0-.025.025-.025a.016.016,0,0,1,.013,0,.015.015,0,0,1,0,.012c0,.01.012.017.033.017a.78.78,0,0,1,.192-.118.143.143,0,0,0-.06-.017.049.049,0,0,1-.044-.034.194.194,0,0,1-.159.1.155.155,0,0,1-.052.058.043.043,0,0,0-.022.026.041.041,0,0,0,0,.034m.033-.757c.024.023.032.023.027,0s-.016-.022-.027,0m.071.2c.023-.022.026-.041.008-.058s-.008-.026.025-.026a.1.1,0,0,0,.044.026c.017.005.026-.009.026-.041a.107.107,0,0,1-.06-.018.091.091,0,0,0-.079,0,.055.055,0,0,1,.017.067.031.031,0,0,0,0,.029.033.033,0,0,0,.022.021m.086-.168h-.017c.035-.011.052,0,.052.033a.194.194,0,0,0,.061-.008.194.194,0,0,1,.061-.009.109.109,0,0,0-.079-.084.222.222,0,0,1-.1-.05c-.023.012-.02.022.009.033s.038.028.026.051H141.7a.07.07,0,0,0,.017.05c.012.011.017.006.017-.016m.052.488c0-.044-.006-.067-.017-.067a.039.039,0,0,0-.026.049c.006.023.02.028.043.018m-.035-.37v.084c.035,0,.05-.011.044-.034s.01-.016.044.017a.118.118,0,0,1-.018-.057c0-.017-.011-.026-.035-.026,0,.011-.011.018-.035.018m.07.336h.07c0,.024.006.034.018.034a.091.091,0,0,0-.018-.067.073.073,0,0,0-.07.032m.018-.353q.034.035.025,0c-.006-.022-.015-.022-.025,0m0,7.441a.066.066,0,0,0,.034.067.075.075,0,0,1,.017-.042c.012-.017.006-.031-.017-.041a.053.053,0,0,1-.034.017m.034-.067c.047-.023.053-.034.017-.034s-.041.011-.017.034m.036-7.609c-.013,0-.018.005-.018.018h.035c0-.012-.006-.018-.017-.018m0,.185a.1.1,0,0,0,.069.008.041.041,0,0,0,.036-.042c-.036,0-.052-.006-.052-.016-.024-.022-.029-.034-.017-.034,0,.023-.006.037-.017.041s-.017.019-.017.042m.017.505a.015.015,0,0,0-.012,0,.014.014,0,0,0,0,.012h.035a.015.015,0,0,0,0-.012.016.016,0,0,0-.013,0m.087-.64a.029.029,0,0,0-.009-.025.032.032,0,0,0-.026-.008c0,.022.012.033.036.033m0,7.51c-.024.022-.036.027-.036.016.023,0,.036-.006.036-.016m-.017-6.953c.059,0,.087.023.087.067a.1.1,0,0,0,.069-.018q.018-.032,0-.032c-.012,0-.011-.011,0-.034-.023.024-.037.029-.043.017a.289.289,0,0,0-.044-.049c-.011.022-.026.031-.044.025s-.026,0-.026.025m0,.1c.011.023.021.023.026,0s0-.022-.026,0m.175,6.953h-.017c-.023,0-.034-.006-.034-.018s-.012-.016-.035-.016a.031.031,0,0,1-.01.025.039.039,0,0,0-.008.025.041.041,0,0,1,.044.025.078.078,0,0,0,.043.042c-.011-.044-.006-.067.017-.067a.057.057,0,0,0,.053-.034.073.073,0,0,1-.061-.033c-.017-.023-.033-.023-.044,0a.052.052,0,0,0,.034.017c.012,0,.017.011.017.034m-.087-7.542a.263.263,0,0,0,.1.034c.012-.022,0-.042-.035-.059s-.059-.008-.069.025m.1.536c0-.021.006-.032.018-.032s.017,0,.017-.018c-.024-.011-.041-.008-.053.008s-.006.031.017.041m0-.572a.038.038,0,0,1,.026.008c.006.007.021.009.044.009-.024-.045-.04-.067-.052-.067a.068.068,0,0,1-.018.051m.036.134c0-.021,0-.03.017-.025a.028.028,0,0,1,.017.025c.012-.044,0-.067-.035-.067.011.022.009.038-.01.042s-.014.014.01.025m.035,7.458c-.013.057-.009.064.01.025s.013-.048-.01-.025m.052-7.592q.035.032.025,0c0-.022-.013-.022-.025,0m.035-.117c.011,0,.018.017.018.051a.189.189,0,0,0,.086-.068.083.083,0,0,1-.079,0c-.017-.013-.027-.005-.027.018m.035.622a.07.07,0,0,1,.052-.008c.011.006.017,0,.017-.025a.105.105,0,0,0-.07.032m.052-.153h.017c.023-.024.02-.034-.009-.034s-.037.006-.026.017Zm.139-.2c0-.022-.01-.032-.034-.032a.027.027,0,0,1,.009.032c-.006.011,0,.011.025,0m.07,0v.034c.022.011.038.005.043-.017s0-.028-.025-.018c0,.011-.007.011-.017,0m.3-.118c.023-.012.029,0,.017.025s-.006.037.018.025c0-.022.006-.036.016-.041a.046.046,0,0,0,.017-.042c-.047,0-.069.011-.069.034m.139.287c.013.022.018.019.018-.008s-.006-.025-.018.008m.123.067c0-.021,0-.033.01-.033s.009-.012.009-.034h-.036c-.023.034-.017.056.018.067m0-.438c.035,0,.052-.011.052-.034-.013,0-.017-.005-.017-.016H143.2Zm0,.2v.018c.023.022.036.02.043-.008s0-.038-.025-.026c0,.012-.006.017-.017.017m.139,7.71a.1.1,0,0,1,.026-.051c.017-.022.008-.033-.026-.033a.066.066,0,0,1-.017.05c-.013.011-.006.023.017.034m-.017-7.676h.017v.034h-.017Zm.017.084a.232.232,0,0,1,.131.008c.052.017.067.048.044.093a.075.075,0,0,0,.027-.067.067.067,0,0,1,.025-.068c-.023.011-.047-.011-.07-.067a.127.127,0,0,1-.1-.018.093.093,0,0,1-.017.067.17.17,0,0,0-.035.051m.1,7.844c.012.022.02.022.027,0s0-.023-.027,0m.192-7.929c.023-.011.041-.011.053,0s.024.005.035-.017c-.035-.034-.064-.028-.087.017m0,7.962c.036,0,.053-.01.053-.033-.035-.034-.053-.023-.053.033m.226-7.659c0,.046,0,.051.01.017s0-.039-.01-.017m.106-.153c.034.01.057.008.068-.008a.147.147,0,0,1,.053-.042c0-.022-.014-.025-.043-.008s-.039,0-.025-.059h-.044a.111.111,0,0,1,0,.118m.017.234c.046.012.073.009.079-.007a.078.078,0,0,1,.043-.043c-.011,0-.017,0-.017-.017a.014.014,0,0,0,0-.012.015.015,0,0,0-.013,0c0,.023-.014.034-.043.034s-.044.018-.044.05m.069-.116c0-.034,0-.051-.017-.051s0,.028.017.051m.035-.236a.1.1,0,0,0,.069-.033c-.046-.011-.052-.025-.017-.043s.04-.036.017-.059c-.022,0-.034-.006-.034-.017a.233.233,0,0,0-.052.077.064.064,0,0,0,.017.077m0-.307h.035c.023-.022.017-.038-.017-.051a.064.064,0,0,1-.017.051m.017.556c.024.011.04.008.052-.009a.135.135,0,0,1,.052-.042.365.365,0,0,0-.1.051m.052-.472a.1.1,0,0,1,.052.084c.024,0,.036-.028.036-.084a.066.066,0,0,0-.088,0m.052.521c.036-.011.058-.008.071.008a.106.106,0,0,0,.052.041c.022-.021.035-.038.035-.05-.023-.011-.052-.021-.086-.034a.052.052,0,0,0-.044,0,.049.049,0,0,0-.027.034m.071-.572c.021.022.03.022.025,0s-.015-.022-.025,0m.033.307c.023,0,.029.011.017.034s-.006.028.017.018a.291.291,0,0,1,.087-.085.127.127,0,0,0-.122.034m.071.37c-.024,0-.036.006-.036.017.023,0,.036-.005.036-.017m.087-.488c.012,0,.029-.028.052-.084a.2.2,0,0,1-.052-.034.075.075,0,0,0-.053-.017c-.022.034-.026.059-.008.077l.06.058m-.053.724a.1.1,0,0,0,.069-.034c-.046,0-.069.011-.069.034m.053-.117a.3.3,0,0,1,.07.008.072.072,0,0,0,.069-.025.121.121,0,0,1-.061-.017.588.588,0,0,0-.062-.034.1.1,0,0,0-.017.068m.07-.506a.063.063,0,0,0,.052-.017.058.058,0,0,0,.017-.05.062.062,0,0,0-.052.017.058.058,0,0,0-.017.05m0,.623c.022,0,.033.006.033.017.024.012.039.008.045-.008s.019-.019.043-.008q-.019-.033.01-.051c.019-.012.013-.022-.01-.034a.3.3,0,0,1-.07.025c-.024.005-.04.025-.052.058m.1-.673c.023.044.041.053.053.025s-.006-.036-.053-.025m.053.825c.01-.011.01-.028,0-.051s-.029.006-.053.051c.048.011.071.033.071.067a.163.163,0,0,1,.174.034c-.036-.045-.024-.077.034-.1-.034-.011-.04-.028-.017-.051s.017-.038-.017-.049a.181.181,0,0,1-.191.1m.14,7.137a.015.015,0,0,1,0-.012.016.016,0,0,1,.012-.005c.025,0,.036,0,.036.008s.006.008.017.008c.011-.033-.006-.05-.053-.05.012.011.006.021-.016.025s-.024.015,0,.025m0-7.726c.022.012.037,0,.043-.034s0-.051-.027-.051a.141.141,0,0,0-.016.084m.122-.05h0m-.017,7.844c.011.022.017.022.017,0s-.006-.022-.017,0m.017-.051c.011,0,.018,0,.018.017a.1.1,0,0,0,.068-.034c-.059-.021-.086-.017-.086.018m.052-7.374c-.025.022-.034.028-.034.017a.053.053,0,0,0,.034-.017m.086.589c.012-.022,0-.034-.025-.034s-.043.006-.043.017c.022,0,.034,0,.034.008s.012.008.034.008m.018-.32c.01.057.02.065.026.025s0-.047-.026-.025m.069.337a.075.075,0,0,0-.026-.059c-.017-.018-.033-.015-.044.008.023-.011.034,0,.034.025s.012.037.036.025m.017-.253c.011.023.017.019.017-.008s-.006-.025-.017.008M145.3,41.1c.023.022.036.022.036,0s-.013-.022-.036,0m.087-.307h-.034a.029.029,0,0,1,.025.017c0,.011.009.005.009-.017m-.017.169c.023.01.036,0,.036-.026s-.013-.035-.036-.025Zm.017,1.8c.035-.034.037-.05.01-.05s-.033.016-.01.05m.07-1.312c.023-.012.025-.025.007-.044s-.031-.013-.042.009a.017.017,0,0,1,.013,0,.016.016,0,0,1,0,.013c0,.011,0,.017.017.017m-.035.117.07.034a.055.055,0,0,0,0-.059.107.107,0,0,1-.017-.059c-.034-.011-.052.017-.052.084m.035,1.835a.1.1,0,0,0,.087-.051h-.052c-.011,0-.023.016-.034.051m.034,1.077v-.05c-.023.011-.034.022-.034.034s.012.016.034.016m-.018-3.32a.079.079,0,0,0,.062.042.065.065,0,0,0,.061-.008.057.057,0,0,1-.042-.013.053.053,0,0,1-.019-.038.157.157,0,0,0-.044-.084q.017.051,0,.058c-.011.006-.017.019-.017.042m.035.32c.035-.011.05,0,.044.025s0,.038.025.025.029-.025.017-.041a.054.054,0,0,1,0-.059.016.016,0,0,1-.013,0,.015.015,0,0,1,0-.013q0-.016-.035,0c0,.022,0,.034-.008.034s-.014.011-.026.033m.1.843c-.011-.012-.024-.022-.035-.034s-.035-.011-.07,0c0,.023.017.04.052.05s.052.007.052-.016m-.017-2.069c-.012,0-.017.005-.017.018a.017.017,0,0,0,.013,0,.016.016,0,0,0,0-.013m.052,2.946-.035-.033c-.011.023-.009.04.009.051s.026.006.026-.018m-.035-3.685c.012.023.018.023.018,0s-.006-.022-.018,0m.088.707h-.052c-.012.034,0,.051.026.051s.037-.018.026-.051m-.036,2.677a.142.142,0,0,0,.088-.026.338.338,0,0,1,.087-.042c-.059.024-.079,0-.052-.067.034,0,.052,0,.052-.016a.137.137,0,0,0-.148.016.1.1,0,0,0-.027.136m0,2.727c0,.045.006.077.018.084,0-.056.017-.077.052-.067a.348.348,0,0,0,.1.016c0-.022-.006-.034-.018-.034s-.017-.011-.017-.033a.148.148,0,0,1-.079.008c-.017-.006-.038,0-.062.025m.018-.64c.012-.022.023-.025.034-.008s.023.015.036-.008c0-.056-.013-.084-.036-.084a.055.055,0,0,1-.034.051c-.024.011-.024.028,0,.05m.017.455a.053.053,0,0,1,.017-.035c.012-.01,0-.021-.017-.033a.082.082,0,0,1-.017.042c-.012.017-.006.025.017.025m-.017-5.236c.012.023.017.021.017-.008s-.006-.025-.017.008m.034.4c-.023,0-.034.006-.034.017.023,0,.034-.006.034-.017m-.034,3.417c0,.01.012.019.034.025a.042.042,0,0,0,.052-.025c-.035,0-.049-.018-.043-.051s-.01-.051-.044-.051a.062.062,0,0,1,.009.051.112.112,0,0,0-.009.051m.052-4.226a.016.016,0,0,0-.013,0,.015.015,0,0,0,0,.012c0-.011,0-.015.01-.009s.009,0,.009-.008m.035,4.731c.023.022.023.019,0-.008s-.024-.026,0,.008m-.017-1.5a.048.048,0,0,0,.033.019.049.049,0,0,0,.036-.01.065.065,0,0,1,.07-.008c.023.056.046.084.07.084a.059.059,0,0,1,.018-.05.063.063,0,0,1,.052-.017.117.117,0,0,0-.121-.068,1.271,1.271,0,0,0-.159.051m.017-2.29h.035c.012-.022.006-.036-.017-.041s-.029,0-.017.025q.017,0,0,.016m.052.153c.024-.023.02-.034-.01-.034s-.043.005-.043.016Zm.07,3.872c-.023,0-.04-.018-.052-.05s-.035-.034-.07,0a.075.075,0,0,1,.061.041c.017.028.038.031.061.008m-.07-.505c0-.022.009-.034.026-.034s.025-.011.025-.033a.08.08,0,0,0-.061.033c-.017.023-.013.034.01.034m0-3.485c.011.023.018.021.018-.008s-.006-.025-.018.008m.052.724a.094.094,0,0,0-.034-.067.079.079,0,0,1,.009.059c-.006.017,0,.021.025.008m-.034,1.851c.023.045.034.051.034.016s-.01-.038-.034-.016m.017.067c-.024.034-.017.044.017.034s.029-.022-.017-.034m.053-1.179a.121.121,0,0,1,.1-.025.346.346,0,0,1,.1.025c0-.044-.029-.062-.086-.05a.106.106,0,0,1-.121-.034c.01.022.007.039-.01.05s-.015.024.01.034m0,1.75a.034.034,0,0,0,.03,0,.033.033,0,0,0,.021-.021c.012-.022.012-.033,0-.033-.011.021-.026.03-.044.024s-.019,0-.007.025m.052-1.632v-.048c-.035,0-.052.006-.052.018.022-.011.031-.005.025.016s0,.029.026.018m0-1.583a.027.027,0,0,0-.017-.025c-.012-.005-.017,0-.017.025.011-.011.017-.011.017,0s.006.011.017,0m.017,2.66c.023.033.035.036.035.008s-.012-.03-.035-.008m0,2.357c.023-.022.029-.018.017.017s-.006.05.017.05a.149.149,0,0,0,.017-.067q0-.033-.052-.051Zm.031-4.635.035-.034c-.012,0-.017,0-.017-.017H146c0,.034.006.051.017.051m0,1.734c-.012.033,0,.048.035.042s.047,0,.036.025c-.036.034-.036.077,0,.134a.2.2,0,0,0-.087.186.319.319,0,0,1,.14.083.135.135,0,0,0,.035-.1c-.058,0-.087-.01-.087-.034a.094.094,0,0,0,.044-.034.093.093,0,0,1,.043-.033.6.6,0,0,1,.009-.109.42.42,0,0,0,.01-.093.079.079,0,0,1-.087-.067.015.015,0,0,0,0-.012.016.016,0,0,0-.012,0c0,.011-.024.017-.07.017m0,2.087c.035,0,.052-.005.052-.017-.035,0-.052.006-.052.017m.07-1.6q-.036,0-.036.016a.053.053,0,0,0,.036-.016m-.036.218h.036a.03.03,0,0,0-.009-.025.032.032,0,0,0-.026-.008Zm0,.1a.028.028,0,0,1,.036-.008c.011.005.011,0,0-.026h-.036Zm0,.74h.122c.011-.034-.006-.053-.053-.06s-.07.015-.07.06m.036-1.65c.011,0,.017.018.017.051.024,0,.046-.022.07-.067-.023.011-.041.011-.053,0s-.023,0-.034.017m.017,2.643c.024,0,.04-.02.052-.06s0-.058-.017-.058a.133.133,0,0,0-.018.058.135.135,0,0,1-.017.06m.139-2.529q0-.051-.069-.051c-.023.023-.023.042,0,.058a.049.049,0,0,0,.036.011.048.048,0,0,0,.033-.018m0,.859c0-.012-.011-.021-.033-.026a.043.043,0,0,0-.053.026.149.149,0,0,1,.053.017c.022.011.033,0,.033-.017m0,.116c.012.046.006.067-.017.067a.055.055,0,0,0-.052.034c.024.023.063.023.121,0s.071-.056.037-.1Zm0-1.073c.012.032.018.036.018.008s-.006-.031-.018-.008m.575,4.241c0-.034-.006-.051-.017-.051-.033.034-.029.051.017.051m.159-.438c.012.023.017.019.017-.008s-.006-.026-.017.008" transform="translate(-88.694 -25.264)" fill="#050605"/>
      <path id="Path_31180" data-name="Path 31180" d="M178.889,34.535a1.081,1.081,0,0,1,.332.707.932.932,0,0,1-.063.522,2.643,2.643,0,0,1-.238.37.809.809,0,0,1-.627.235l-.244-.059a.639.639,0,0,1-.244-.143.961.961,0,0,1-.159-.3.383.383,0,0,1,.071-.379c.058-.077.1-.137.139-.177a1.2,1.2,0,0,1,.139-.126v-.017a.6.6,0,0,0-.1-.1l-.131-.1c-.011-.022-.006-.031.017-.025a.043.043,0,0,0,.032,0,.04.04,0,0,0,.021-.023c-.059-.011-.131-.022-.218-.033a.376.376,0,0,1-.218-.1h-.052a.271.271,0,0,1-.121.042,1.044,1.044,0,0,0-.175.043,2.326,2.326,0,0,0-.269.093.52.52,0,0,0-.253.243,1.506,1.506,0,0,0-.132.287,1.151,1.151,0,0,0-.043.337v.134q.052.034.317.236a2.709,2.709,0,0,1,.3.261,1.137,1.137,0,0,1,.209.312.556.556,0,0,1,.148.175c.04.077.084.153.129.244a2.469,2.469,0,0,1,.167.556,2.773,2.773,0,0,1,.061.471,2.177,2.177,0,0,1-.094.757,3.243,3.243,0,0,1-.271.624c-.093.123-.19.244-.287.361a2.887,2.887,0,0,1-.428.4c-.079.056-.171.114-.27.175a1.823,1.823,0,0,1-.271.143,3.042,3.042,0,0,1-.332.119c-.14.042-.255.077-.348.1a3.281,3.281,0,0,1-.6.1,4.376,4.376,0,0,1-.653-.016,4.455,4.455,0,0,1-.524-.077,2.427,2.427,0,0,1-.453-.126.108.108,0,0,1,.036-.093.541.541,0,0,0,.07-.058.1.1,0,0,0-.017-.058.109.109,0,0,1-.017-.059.131.131,0,0,1-.1.134.084.084,0,0,0-.061.119,4.518,4.518,0,0,1-.426-.153,4.5,4.5,0,0,0-.428-.153.669.669,0,0,0-.592.153.939.939,0,0,0-.175.269.594.594,0,0,0-.052.37.808.808,0,0,0,.374.505,1.767,1.767,0,0,0,.619.2c.175.022.426.042.759.059s.647.02.952.008a4.49,4.49,0,0,1,.723.025c.238.028.416.048.532.058.159.023.317.04.471.051a.711.711,0,0,1,.383.134.1.1,0,0,0,.07.034.139.139,0,0,0,.1,0,.258.258,0,0,1,.1-.017h.052a3.753,3.753,0,0,1,.567.211,5.276,5.276,0,0,1,.514.277.1.1,0,0,1,.034.068l.017.017c0,.011.006.016.018.016.035,0,.053.011.053.034a.225.225,0,0,0,.1.1c.04.022.085.044.131.067a.053.053,0,0,1,.017.034.367.367,0,0,0,.052.084.615.615,0,0,1,.218.23,1.482,1.482,0,0,0,.182.261v.034l.017.032c0,.045-.01.077-.026.084s-.014.034.009.067c0,.034.012.051.035.051a.079.079,0,0,1,.062.041.336.336,0,0,0,.061.077.034.034,0,0,0,.009.025.069.069,0,0,1,.009.041,1.545,1.545,0,0,1,0,.307c-.013.09-.025.208-.036.353v.068a.139.139,0,0,1,.017.051.045.045,0,0,0,.018.033v.051a1.611,1.611,0,0,1-.29.732,4.935,4.935,0,0,1-.374.413,2.058,2.058,0,0,1-.367.286,4.038,4.038,0,0,1-.454.269,3.082,3.082,0,0,1-.505.193c-.174.05-.366.1-.575.16-.07.012-.159.028-.271.051s-.229.042-.356.059-.259.028-.4.034-.259.008-.374.008a.651.651,0,0,1-.159-.017l-.139-.034q-.184,0-.367.018c-.117.011-.232.016-.348.016a4.025,4.025,0,0,1-.515-.034c-.181-.021-.351-.051-.514-.084s-.308-.068-.436-.1a1.9,1.9,0,0,1-.261-.084,1.155,1.155,0,0,1-.261-.086c-.1-.044-.209-.1-.317-.153s-.206-.112-.3-.168a1.252,1.252,0,0,1-.218-.153,3.108,3.108,0,0,1-.365-.345,1.873,1.873,0,0,1-.278-.46,1.8,1.8,0,0,1-.167-.605,2.8,2.8,0,0,1,.027-.656,1.167,1.167,0,0,0,.052-.16.9.9,0,0,1,.052-.16,2.554,2.554,0,0,1,.34-.513,2.181,2.181,0,0,1,.567-.43c.057-.033.13-.073.217-.117a2.449,2.449,0,0,1,.27-.118V42.75a2.293,2.293,0,0,0-.261-.118,1.35,1.35,0,0,1-.3-.153,2.4,2.4,0,0,1-.506-.438,1.241,1.241,0,0,1-.313-.773,1.4,1.4,0,0,1,.417-1.179,1.918,1.918,0,0,1,.873-.506.1.1,0,0,1,.07-.034.1.1,0,0,0,.07-.034,1.4,1.4,0,0,1-.228-.361,1.525,1.525,0,0,1-.121-.329,2.149,2.149,0,0,1-.106-.556,2.377,2.377,0,0,1,.053-.622,1.415,1.415,0,0,1,.053-.211c.022-.077.046-.143.069-.211a1.683,1.683,0,0,1,.218-.412,4.032,4.032,0,0,1,.287-.345,2.62,2.62,0,0,1,.68-.536,2.834,2.834,0,0,1,.861-.334,4.187,4.187,0,0,1,.994-.118,4.789,4.789,0,0,1,.487.026,3.191,3.191,0,0,1,.54.109,1.422,1.422,0,0,1,.06-.429,3.976,3.976,0,0,1,.148-.4,1.271,1.271,0,0,1,.278-.37,1.172,1.172,0,0,1,.436-.269,1.129,1.129,0,0,1,.471-.153,2.435,2.435,0,0,1,.54-.034,2.053,2.053,0,0,1,.476.017q.183.033.426.1a1.226,1.226,0,0,1,.367.185,2.724,2.724,0,0,1,.331.268M170.7,43.845a.022.022,0,0,1,.034,0v-.034c-.011,0-.017,0-.017-.009s-.011-.008-.036-.008c0,.034.006.051.017.051m.3,1.884a.16.16,0,0,1-.043-.025.075.075,0,0,0-.044-.008c-.024.032-.014.049.026.049s.061-.005.061-.017m.122-1.7a.043.043,0,0,0-.012-.038.046.046,0,0,0-.039-.013c0,.022.006.033.017.033a.051.051,0,0,1,.034.018m.227,2.2a.211.211,0,0,0-.043-.033c-.017-.011-.025,0-.025.033a.037.037,0,0,1,.028-.006.036.036,0,0,1,.023.016c.012.016.017.013.017-.01m.087-2.389c.024-.022.021-.037-.008-.043s-.044,0-.044.026a.032.032,0,0,1,.026.008.043.043,0,0,0,.026.008m3.451-.69c-.175-.011-.368-.018-.583-.018a5.293,5.293,0,0,0-.618.034l-.375.05a4.443,4.443,0,0,0-.463.085,4.734,4.734,0,0,0-.452.159,2.385,2.385,0,0,0-.384.193,1.15,1.15,0,0,0-.609.859,1.177,1.177,0,0,0,.026.4,1.053,1.053,0,0,0,.165.32.964.964,0,0,0,.349.336c.139.077.243.142.317.185a.72.72,0,0,0,.165.093,2.319,2.319,0,0,0,.383.118c.168.038.38.077.635.109a7.391,7.391,0,0,0,.941.051,6.085,6.085,0,0,0,1.032-.077,4.245,4.245,0,0,0,.731-.185,2.994,2.994,0,0,0,.476-.219c.121-.077.211-.133.271-.177a2.1,2.1,0,0,0,.365-.287l.017-.033c0-.067.011-.107.034-.118V45a.2.2,0,0,1-.009-.093.51.51,0,0,0,.009-.109.124.124,0,0,0,.079.008.5.5,0,0,1,.1-.008l.017-.017a.8.8,0,0,0-.122-.1c-.011-.033-.006-.051.017-.051s.029-.012.017-.034a.054.054,0,0,0-.052-.034.056.056,0,0,1-.052-.033.868.868,0,0,0-.086-.37c.058-.01.094-.006.1.018a.115.115,0,0,0,.069.05.075.075,0,0,0,.026-.077.152.152,0,0,0-.043-.077.045.045,0,0,1-.07,0,.119.119,0,0,0-.087-.034.055.055,0,0,0-.009.051c.006.011,0,.017-.026.017a.994.994,0,0,0-.3-.354,3.445,3.445,0,0,0-.349-.235q.034-.067.14-.034c.07.023.11.006.122-.05a.081.081,0,0,1-.052.017c-.047,0-.064-.023-.053-.067s.024-.067.069-.034.079.022.088-.034a.056.056,0,0,0-.026-.035.06.06,0,0,0-.044-.007.13.13,0,0,1-.087-.009.093.093,0,0,0-.008.069c.006.022,0,.032-.026.032-.07-.022-.113-.015-.13.026a.213.213,0,0,1-.079.092,4.23,4.23,0,0,0-1.57-.336m-3.345-.473a.07.07,0,0,0,.07-.033c-.024,0-.034,0-.034-.009s-.006-.008-.017-.008,0,.018-.01.018-.009.011-.009.033m.052-3.434V39.3c.035.011.052.006.052-.018a.053.053,0,0,1,.036-.05.147.147,0,0,0-.087.016m.052.32c0,.056.006.064.018.025s0-.048-.018-.025m.07.32c0-.056-.012-.086-.034-.086a.06.06,0,0,0-.036.059c0,.029.023.037.07.026m-.017,3.065a.039.039,0,0,1,.026.008c0,.006.02.008.043.008a.04.04,0,0,0-.035-.041c-.022-.005-.035,0-.035.025m.017-3.416c.023.022.038.019.044-.009a.048.048,0,0,0-.026-.059.1.1,0,0,0-.017.068m.436.808c0-.044-.01-.068-.035-.068,0,.057.011.077.035.068m-.035,2.406v.018h.035c.023-.022.017-.034-.017-.034,0,.012-.006.017-.017.017m.052.254a.332.332,0,0,0-.025.084.1.1,0,0,0,.025.084.324.324,0,0,1,.079-.135c.041-.044.05-.084.027-.118-.024.077-.059.107-.106.085m0-3.62c.025-.021.045-.025.061-.008s.027.008.027-.025c-.012.011-.033.011-.061,0s-.038,0-.027.033m.018,3.923c.023,0,.035-.005.035-.018-.023,0-.035.006-.035.018m.106-.556c.01-.033-.006-.05-.053-.05a.044.044,0,0,0,.014.037.048.048,0,0,0,.039.012m.069.591v.032a.016.016,0,0,1,.014,0,.015.015,0,0,1,0,.013.11.11,0,0,0,.025-.042c.006-.017,0-.025-.025-.025a.016.016,0,0,1,0,.013.017.017,0,0,1-.013,0m.036-4.138v.033c.023.011.038.006.044-.017s0-.033-.026-.033a.015.015,0,0,1,0,.013.016.016,0,0,1-.013,0m.086-3.065c.034,0,.052-.014.052-.041a.107.107,0,0,1,.036-.077c-.036.011-.064.051-.088.118m0,6.767c.047,0,.07-.016.07-.051-.011,0-.036.018-.07.051m0,.084q.018.033.018,0t-.018,0m2.475-6.329a1.933,1.933,0,0,0-.4-.059c-.139-.006-.268-.008-.384-.008a.349.349,0,0,1-.086-.034c-.034.022-.079.048-.131.077a.128.128,0,0,1-.148-.007.3.3,0,0,1-.192.116,1.347,1.347,0,0,0-.244.084,1.935,1.935,0,0,0-.331.237,2.018,2.018,0,0,0-.279.287,1.23,1.23,0,0,0-.175.327c-.034.107-.063.211-.086.313a1.612,1.612,0,0,0,.279,1.195.49.49,0,0,1,.1.169l.07.033a.129.129,0,0,1,.053.051l.017.034c.022.023.037.031.043.025s.02,0,.043.009a.052.052,0,0,1,.018.042c0,.017.01.025.034.025a.384.384,0,0,1,.175.084,1.314,1.314,0,0,0,.445.169,2.125,2.125,0,0,0,.357.051.493.493,0,0,1,.13.018.6.6,0,0,0,.149.015h.033a.48.48,0,0,1,.2-.057.473.473,0,0,0,.2-.059h.052a.541.541,0,0,0,.167-.026.34.34,0,0,1,.165-.008h.017a.433.433,0,0,0,.2-.093,1.086,1.086,0,0,1,.218-.143c.012,0,.023-.008.035-.025a.131.131,0,0,1,.052-.041h.071a.051.051,0,0,0,.017-.034.934.934,0,0,1,.278-.285c.024,0,.037-.022.037-.067a1.16,1.16,0,0,1,.071-.21,1.553,1.553,0,0,0,.069-.212,1.664,1.664,0,0,0,.043-.336,1.7,1.7,0,0,0-.027-.387,1.223,1.223,0,0,0-.217-.513,1.66,1.66,0,0,0-.253-.3,2.17,2.17,0,0,0-.427-.262c-.159-.072-.311-.137-.462-.193m-2.405,6.329c.034,0,.052-.005.052-.017-.035-.034-.052-.028-.052.017m.3-3.449h.035c0-.034-.011-.039-.035-.018Zm.07.167a.1.1,0,0,1,.01.068.04.04,0,0,0,.026.05c.035-.011.055-.013.061-.008s.02.021.043.041a.357.357,0,0,1-.008-.134c0-.033-.015-.061-.061-.085a.1.1,0,0,1-.035.043.116.116,0,0,0-.035.025m.07.471a.033.033,0,0,0,.022.022.034.034,0,0,0,.031,0,.034.034,0,0,0,.022-.021.032.032,0,0,0,0-.029.1.1,0,0,0-.069.034m.121,2.794a.14.14,0,0,1-.052-.016c-.023-.011-.033-.011-.033,0a.069.069,0,0,1,.043.025c.017.017.032.015.043-.008m-.017,3.67c.012-.022,0-.041-.026-.051s-.043-.005-.043.017c.022.034.045.044.069.034m-.017-6.565c0,.022.012.028.034.017s.042-.012.053,0c.012-.024,0-.04-.034-.051s-.052,0-.052.034m.052.2c.01.057.02.065.026.025s0-.048-.026-.025m.034,2.845a.032.032,0,0,1,.027.009.03.03,0,0,1,.009.026.029.029,0,0,0,.009.024.031.031,0,0,0,.025.008.105.105,0,0,0,.009-.077c-.006-.028-.026-.037-.06-.025,0,.022-.006.033-.017.033m.453-2.845a.2.2,0,0,0-.113,0,.265.265,0,0,1-.131,0c0,.023-.006.037-.017.043s-.017.018-.017.042a.176.176,0,0,0,.062.041c.017.006.02.025.009.059a.308.308,0,0,1,.313-.034l.036-.034c.011-.022.011-.038,0-.05a.062.062,0,0,1-.017-.051c-.059.022-.088.017-.088-.018a.067.067,0,0,0-.035-.067c.012.023.015.037.01.042a.033.033,0,0,0-.01.025m-.261-.118c.023,0,.035.006.035.017s.011.017.034.017a.037.037,0,0,1,.01-.025c.006-.005,0-.019-.01-.041a.049.049,0,0,1-.034.016.051.051,0,0,0-.035.017m.017,2.517c.011-.006.006-.014-.017-.025V42.7a.025.025,0,0,1,.017-.025m.052-2.668c.037.023.064.023.087,0a.11.11,0,0,0,.035-.084c-.071.024-.111.051-.122.084m.037.639c.011.034.016.037.016.01s0-.031-.016-.01m.3-.117c.022.022.034.022.034,0s-.012-.022-.034,0m.034-.388v-.05a.026.026,0,0,1-.017.025c-.011.006-.006.014.017.025m.071.27c-.012.023-.009.031.007.025a.048.048,0,0,1,.045.008c0-.033-.007-.051-.018-.051,0,.034-.011.041-.034.018m.069-.185a.14.14,0,0,0,.086.017c0-.044-.017-.067-.052-.067-.012.011-.018.02-.018.025a.043.043,0,0,1-.017.025m.086.641q.088,0,.088-.067c-.058,0-.088.021-.088.067m.017-.169a.1.1,0,0,0,.159.034.228.228,0,0,0-.017-.1c0,.056-.017.077-.052.058a.072.072,0,0,0-.087.009m.052-4.764a.164.164,0,0,0,.1,0,.164.164,0,0,1,.1,0,.223.223,0,0,1,0-.118.415.415,0,0,0-.122.017.119.119,0,0,1-.1-.017c-.023.022-.026.042-.008.059a.084.084,0,0,1,.025.059m.139,4.612.052-.05a.042.042,0,0,1-.044-.025c0-.017-.025-.019-.061-.008,0,.067.017.1.053.083m.069.1c.011,0,.018,0,.018.01s.006.008.017.008c0-.033-.012-.044-.036-.033Zm.07-4.41c.023-.012.036-.012.036,0s.012.011.034,0a.039.039,0,0,0,.009-.042c-.006-.017,0-.031.026-.043a.079.079,0,0,0-.113.043c-.029.051-.025.064.008.042m.1-.185a.082.082,0,0,0,0-.077q-.018-.041-.069-.025c-.024.067,0,.1.069.1m.175-.454v.067a.053.053,0,0,1,.044-.034.048.048,0,0,0,.043-.033q-.036-.017-.043,0c0,.011-.021.011-.044,0m.053,10.941c0-.044-.017-.067-.053-.067a.139.139,0,0,1,.017.059c0,.016.012.019.036.008m.016-6.413c.023,0,.036,0,.036-.008s.011-.008.034-.008c.011-.033,0-.048-.043-.042s-.05.026-.027.06m.175-4.259c-.011,0-.022-.011-.034-.034s-.017-.022-.017,0a.046.046,0,0,0,.017.034.021.021,0,0,0,.034,0m.332,4.124a.542.542,0,0,0,.01.11.076.076,0,0,1-.044.077c-.059-.011-.11-.019-.159-.025a.189.189,0,0,0-.122.025.188.188,0,0,1,0,.16.844.844,0,0,0-.052.16.13.13,0,0,0,.139.017.155.155,0,0,0,.087-.1.109.109,0,0,1-.113-.067.1.1,0,0,1,.044-.118h.166a.448.448,0,0,1,.165.034.117.117,0,0,1-.061-.143.963.963,0,0,1,.044-.126c0,.022-.014.034-.044.034a.063.063,0,0,1-.06-.034m-.317-3.468c.024,0,.032-.006.026-.017a.029.029,0,0,1,.01-.034H174.9Zm.14.067a.059.059,0,0,0-.018-.05.064.064,0,0,0-.052-.017.042.042,0,0,0,.017.058c.024.018.041.021.053.01m.087,3.467c.012-.011,0-.033-.017-.067a.055.055,0,0,0-.017.043c0,.016.011.024.035.024m.07-.117c-.023,0-.034.006-.034.016.023,0,.034-.006.034-.016m.331.859c-.013-.024-.013-.038,0-.043s.017-.019.017-.041a.2.2,0,0,0-.139-.034.135.135,0,0,0,.121.119m-.052-4.866c.046,0,.063-.011.052-.034-.035,0-.052.011-.052.034m.121,3.972c.023,0,.035-.015.035-.05s-.012-.051-.035-.051a.107.107,0,0,0-.025.051.038.038,0,0,0,0,.03.04.04,0,0,0,.023.02m.122-3.065c.046,0,.061-.018.043-.051a.146.146,0,0,0-.061-.067c.024.022.029.043.017.059a.052.052,0,0,0,0,.06m0,3.72c.023,0,.035,0,.035.009s.006,0,.017-.026c-.011-.011-.029-.005-.052.018m.07-.724c.011-.034,0-.05-.035-.05,0,.033.012.05.035.05m.017-3.7a.036.036,0,0,1,.025.008.036.036,0,0,0,.027.008.116.116,0,0,0,.017-.135c-.059,0-.087.007-.087.018.036.011.048.024.043.041a.453.453,0,0,1-.025.059m.173,4.445a.3.3,0,0,0-.159-.083.106.106,0,0,0,.057.082.113.113,0,0,0,.1,0m.018-.656a.066.066,0,0,0,.017.051q.017.017,0,.051A.1.1,0,0,0,176.1,40a.114.114,0,0,1,.079-.025c.035.033.064.044.086.033s.052-.044.052-.1c-.033.011-.058.007-.069-.015a.117.117,0,0,0-.052-.051.156.156,0,0,1-.1.042.177.177,0,0,0-.1.041m.017.337a.224.224,0,0,1,.034.27h.069a.56.56,0,0,0,.037-.219c0-.09-.047-.106-.14-.051m.052-.607c0,.023.006.038.017.044a.025.025,0,0,1,.017.025.105.105,0,0,1,.1-.008.049.049,0,1,0,.064-.071.081.081,0,0,0-.064-.022.263.263,0,0,0-.14.033m.087-3.046a.2.2,0,0,0,.1.067c.046-.056.044-.1-.009-.135s-.083-.011-.1.067m.086,6.194a.04.04,0,0,0,.043-.025.082.082,0,0,1,.044-.041.037.037,0,0,1-.026-.008.037.037,0,0,0-.025-.008.109.109,0,0,0-.036.084m.087-2.457a.141.141,0,0,1-.018-.058c0-.018-.01-.026-.033-.026-.024.022-.006.051.052.084m-.052-.136a.412.412,0,0,1,.086.051.175.175,0,0,1,.139-.168c0-.035-.024-.051-.07-.051,0,.056-.02.077-.06.058a.14.14,0,0,1-.079-.058.538.538,0,0,0-.017.167m.052-.723a.014.014,0,0,1,0-.012.015.015,0,0,1,.013,0c0-.034-.012-.039-.035-.016,0,.022.006.033.018.033m0,.236c.011.022.02.02.026-.008s0-.025-.026.008m.011-3.288.018.018c0-.034-.006-.044-.018-.034Zm.052,3.284c.024,0,.035,0,.035-.008s.006-.009.017-.009c0-.044,0-.072.018-.084-.036-.034-.065-.044-.087-.034a.359.359,0,0,0,.017.135m.053.269c0-.022.029-.034.087-.034a.05.05,0,0,1,.026.06c-.006.027,0,.041.025.041.023-.044.07-.055.14-.033a.053.053,0,0,0-.044-.059.053.053,0,0,1-.044-.06.241.241,0,0,1-.13,0,1.164,1.164,0,0,1-.113-.05c0,.09.017.135.053.135m-.017-1.363a.363.363,0,0,0,.061.05c.017.012.021.045.009.1a.867.867,0,0,0,.079.035.144.144,0,0,0,.1,0,.588.588,0,0,1-.026-.059.2.2,0,0,1-.009-.059c-.035.011-.057.006-.069-.018a.13.13,0,0,1-.018-.067.383.383,0,0,0-.01-.077.1.1,0,0,0-.025-.058.1.1,0,0,1-.061.067c-.029.013-.037.04-.026.085m.017-2.324h.035c0-.022-.012-.022-.035,0m.087,3.233c.011-.012,0-.028-.017-.051,0,.034.006.051.017.051m.036-2.576c-.013,0-.018,0-.018-.009s-.006-.008-.017-.008c-.023.022-.021.034.008.034s.039-.005.027-.017m.033.891c-.011,0-.017,0-.017-.008s-.011-.009-.035-.009c-.013.024-.006.038.018.042s.033,0,.033-.025m-.052-3.416a.078.078,0,0,1,.044.041.04.04,0,0,0,.043.025c.047-.067.029-.1-.052-.1Zm.069,2.894h-.035c.012,0,.017.005.017.018s.006.005.017-.018m.017-.808a.509.509,0,0,1,.009-.1c.009-.046,0-.072-.026-.083-.023.1-.017.162.017.185m0,.383c.011,0,.02-.011.027-.034s0-.033-.027-.033a.051.051,0,0,0-.017.033c0,.023.006.034.017.034m0-2.019.036.067c0-.045-.012-.067-.036-.067m.07,8.047c-.023,0-.033-.005-.026-.017s0-.017-.026-.017q-.018.033.01.051c.018.011.032.005.043-.017m.017-5.807c0-.011-.024-.028-.07-.05,0,.022.006.034.017.034a.146.146,0,0,1,.052.016m-.052,5.978q.052,0,.052-.067c-.059,0-.079.022-.052.067m0-8.518c.035.023.049.021.044-.007s-.021-.026-.044.007m.017,2.021a.077.077,0,0,1,.044.051.041.041,0,0,0,.044.034.181.181,0,0,0-.052-.169c0,.023-.007.037-.017.041s-.018.019-.018.042m.018,2.606a.153.153,0,0,1,.043.059.163.163,0,0,0,.044.059c0-.011.017-.017.052-.017a.227.227,0,0,1,.1-.2.246.246,0,0,0,.113-.153q-.035.034-.06.008a.229.229,0,0,1-.043-.059.3.3,0,0,1-.244.307m.017,3.72a.291.291,0,0,0,.087.034q-.018-.051.009-.067a.057.057,0,0,0,.025-.051c-.024-.021-.044-.041-.061-.058s-.01-.037.026-.06a.15.15,0,0,0-.087-.016.046.046,0,0,0-.009.051.1.1,0,0,1-.009.067h.1c.011.067-.017.1-.086.1m0-8.164a.041.041,0,0,0,.043-.025c.006-.017,0-.031-.026-.041a.032.032,0,0,1-.009.025.065.065,0,0,0-.008.042m.052,5.017h.052c-.012-.022-.012-.038,0-.041s.012-.021,0-.043a.061.061,0,0,0-.052.026.054.054,0,0,0,0,.059m.035.1c0,.056.006.064.017.025s.006-.048-.017-.025m.017-2.727a.128.128,0,0,0,.088,0v-.085c-.035-.022-.062-.022-.079,0a.088.088,0,0,0-.009.085m.192-.2a.153.153,0,0,0-.07-.11.88.88,0,0,1-.1-.058c.023.044.043.082.061.11a.16.16,0,0,0,.113.059m-.088-2.56c.023.023.044.021.061-.008a.15.15,0,0,0,.026-.077h-.07c.011.022.011.036,0,.042a.044.044,0,0,0-.018.041m.07.1a.057.057,0,0,0-.025-.051q-.026-.016-.026.016a.016.016,0,0,1,.017.018c0,.011.012.016.035.016m-.035,2.777q.018.034.026,0c.006-.023,0-.023-.026,0m.053,8.686a.08.08,0,0,0-.01.093.427.427,0,0,0,.061.077c.011-.022.037-.031.079-.025s.061,0,.061-.025a.069.069,0,0,0-.052.016.039.039,0,0,0-.027-.041c-.018-.005-.026-.019-.026-.042a.1.1,0,0,0,.07-.033c.022-.023.017-.039-.017-.051,0,.022-.047.033-.14.033m.034-3.029v-.05H177a.044.044,0,0,0,.013.037.047.047,0,0,0,.038.013m0-5.1a.015.015,0,0,0-.013,0,.014.014,0,0,0,0,.013h.035c0-.011-.006-.017-.017-.017m.036.909a.017.017,0,0,0-.013,0,.016.016,0,0,0,0,.013h.035a.015.015,0,0,0,0-.013.016.016,0,0,0-.013,0m.035,4.04c-.035,0-.052.007-.052.017.035.034.052.028.052-.017m-.018-4.813q.037.032.026,0c-.007-.021-.015-.023-.026,0m.036.589c-.024,0-.033-.008-.027-.025s0-.025-.009-.025a.22.22,0,0,0,.009.05c.006.022.016.022.027,0m.087-.69a.133.133,0,0,0,.1.034.132.132,0,0,1,.1.034.106.106,0,0,1,0,.117.075.075,0,0,0,.017.1.405.405,0,0,0,.043-.144,1.189,1.189,0,0,0,.009-.159.111.111,0,0,0-.122-.034.405.405,0,0,0-.139.051m.072,8.081c.048.023.056.051.027.085a.26.26,0,0,1-.079.067.07.07,0,0,0,.1-.008.113.113,0,0,0,.044-.077c.046.023.079.018.1-.016s.018-.056-.017-.067c-.011.057-.037.071-.079.043s-.073-.038-.1-.027m0-7.591c.023,0,.036,0,.036.008s0,.008.017.008c0-.021,0-.032.009-.032s0-.006-.025-.018Zm.159,4.713c-.01.022-.01.034,0,.034s.017.011.017.034c-.034.057-.075.062-.122.018q0,.067.052.041a.212.212,0,0,1,.087-.025c0-.057.013-.09.037-.1a.05.05,0,0,1-.045-.017c-.006-.011-.015,0-.026.017m-.034.489c.011.056.027.112.044.168a.235.235,0,0,1-.01.169.071.071,0,0,0,.054-.077.07.07,0,0,1,.052-.077c-.094-.045-.11-.1-.052-.161a.108.108,0,0,1,.174-.008.044.044,0,0,0-.013-.038.047.047,0,0,0-.039-.013c-.034,0-.046-.028-.034-.084-.047.021-.079.017-.086-.018s-.029-.038-.054-.016c.048.011.059.037.036.077a.2.2,0,0,1-.069.077m0,2c.023-.011.034-.011.034,0s.012.017.036.017a.075.075,0,0,0,.018-.084c-.036,0-.064.022-.088.067m.122-2.474a.093.093,0,0,1,.044.016c.017.011.03.006.042-.016-.012,0-.017-.023-.017-.068-.023,0-.047.024-.07.068m.052.943a.267.267,0,0,1,.034.11.453.453,0,0,1-.017.11.059.059,0,0,0,.079.008c.029-.017.056-.031.079-.042a.115.115,0,0,1-.069-.11.31.31,0,0,1,.034-.143.115.115,0,0,1-.069-.025.049.049,0,0,0-.036-.011.048.048,0,0,0-.033.018.077.077,0,0,1,.044.05c.006.023-.01.034-.044.034m.017,1.379a.036.036,0,0,1,.026.009c.006.005.02,0,.043-.009a.092.092,0,0,0-.036-.067c0,.021-.006.032-.017.032s-.017.011-.017.034m.139-.307c-.057-.011-.079-.008-.061.008s.038.014.061-.008m.017-.236c-.011.057-.008.064.009.025s.015-.048-.009-.025m.192-.825a.094.094,0,0,0,.034-.067c-.046.011-.079.008-.1-.009a.113.113,0,0,0-.079-.025.222.222,0,0,0,.14.1m-.14.219a.076.076,0,0,0,.044.077c.028.018.032.037.009.059.079-.022.121-.061.121-.116-.046.011-.073,0-.079-.034s-.033-.045-.079-.034c0,.034-.006.051-.017.051m.227.724q0,.084.069.041c.046-.028.079-.031.106-.009a.048.048,0,0,1,0-.058c.01-.018,0-.025-.018-.025a.188.188,0,0,1-.159.051m.087-1.162H178.1l-.017.016c.034,0,.052-.006.052-.016m.033-8.266a.158.158,0,0,1,.175-.117c-.012-.057-.059-.084-.14-.084a.4.4,0,0,1-.052.1.075.075,0,0,0,.016.1m.3.153a.07.07,0,0,0-.062-.008.119.119,0,0,1-.079-.008c-.013.033.009.051.061.051s.079-.011.079-.035m-.053-.672c0,.011.012.028.035.05.024-.022.036-.039.036-.05-.023,0-.033-.006-.027-.017s0-.011-.025,0Zm.053.757c-.023.022-.023.034,0,.034s.023-.011,0-.034m.017-1.111a.074.074,0,0,0,.052-.016c-.035,0-.052,0-.052.016m.331.942c.023,0,.033.013.026.034a.21.21,0,0,0-.008.05q.069,0,.106-.1c-.047-.044-.087-.04-.123.016m.209-.218c-.013.01-.017.01-.017,0a.015.015,0,0,0,0-.012.016.016,0,0,0-.013,0c-.036.022-.037.045-.008.067s.043.006.043-.05" transform="translate(-109.77 -22.34)" fill="#050605"/>
      <path id="Path_31181" data-name="Path 31181" d="M101.495,18.378V15.531h-.609v-.536h1.329v.464a1.3,1.3,0,0,1,1.032-.518,1.236,1.236,0,0,1,1.226.743,1.343,1.343,0,0,1,1.2-.743c.857,0,1.4.542,1.4,1.625v1.81h.609v.536h-1.329V16.723c0-.835-.3-1.207-.849-1.207-.476,0-.714.449-.865.882a1.3,1.3,0,0,1,.008.17v1.81h.6v.536h-1.322V16.723c0-.835-.3-1.207-.849-1.207-.457,0-.737.464-.866.913v1.95h.609v.536h-1.938v-.536Z" transform="translate(-65.15 -9.831)" fill="#050605"/>
      <path id="Path_31182" data-name="Path 31182" d="M123.358,14.967a1.765,1.765,0,0,1,1.338.526v-.48h.72v3.38h.617v.536H124.7v-.482a1.773,1.773,0,0,1-1.338.518,1.883,1.883,0,0,1-1.369-.616,1.751,1.751,0,0,1-.441-1.4,1.739,1.739,0,0,1,.446-1.384,1.871,1.871,0,0,1,1.365-.6m-1.066,2a1.229,1.229,0,0,0,.313.962,1.321,1.321,0,0,0,.944.43A1.157,1.157,0,0,0,124.7,17.5V16.448a1.157,1.157,0,0,0-1.145-.859,1.314,1.314,0,0,0-.944.426,1.223,1.223,0,0,0-.314.959" transform="translate(-78.492 -9.846)" fill="#050605"/>
      <path id="Path_31183" data-name="Path 31183" d="M137.532,12.126a1.754,1.754,0,0,1,1.349.557V11.174h-.624v-.526h1.349v4.9h.609v.536h-1.34v-.51a1.831,1.831,0,0,1-1.349.549,1.883,1.883,0,0,1-1.369-.616,1.751,1.751,0,0,1-.441-1.4,1.739,1.739,0,0,1,.446-1.384,1.871,1.871,0,0,1,1.365-.6m-1.066,2a1.229,1.229,0,0,0,.313.962,1.321,1.321,0,0,0,.944.43,1.142,1.142,0,0,0,1.154-.881V13.618a1.167,1.167,0,0,0-1.154-.874,1.314,1.314,0,0,0-.944.426,1.223,1.223,0,0,0-.314.959" transform="translate(-87.644 -7.005)" fill="#050605"/>
      <path id="Path_31184" data-name="Path 31184" d="M151.835,14.966a1.825,1.825,0,0,1,1.4.529,1.694,1.694,0,0,1,.489,1.374c0,.077-.016.348-.016.433h-3.076a1.286,1.286,0,0,0,1.354,1.06,1.806,1.806,0,0,0,1.362-.626l.184.565a2.2,2.2,0,0,1-1.682.665,1.957,1.957,0,0,1-1.468-.57,1.818,1.818,0,0,1-.527-1.441,1.815,1.815,0,0,1,.53-1.42,1.953,1.953,0,0,1,1.448-.568m1.274,1.795a1.137,1.137,0,0,0-.343-.881,1.223,1.223,0,0,0-.907-.345,1.248,1.248,0,0,0-1.258,1.226Z" transform="translate(-96.773 -9.845)" fill="#050605"/>
      <path id="Path_31185" data-name="Path 31185" d="M170.135,10.648v2.019a1.842,1.842,0,0,1,1.349-.542,1.865,1.865,0,0,1,1.361.606,1.734,1.734,0,0,1,.441,1.383,1.745,1.745,0,0,1-.436,1.394,1.877,1.877,0,0,1-1.366.617,1.832,1.832,0,0,1-1.349-.549v.511h-1.329v-.536h.609V11.174h-.609v-.526Zm0,3.992a1.141,1.141,0,0,0,1.154.882,1.326,1.326,0,0,0,.943-.432,1.234,1.234,0,0,0,.315-.961,1.227,1.227,0,0,0-.316-.958,1.319,1.319,0,0,0-.942-.427,1.183,1.183,0,0,0-1.154.874Z" transform="translate(-109.011 -7.005)" fill="#050605"/>
      <path id="Path_31186" data-name="Path 31186" d="M182.777,15.636V15.1h1.97v.536h-.561l1.032,2.809,1.058-2.809h-.561V15.1h1.962v.536H187l-1.538,3.884a1.078,1.078,0,0,1-1.13.828,2.3,2.3,0,0,1-.777-.139l.136-.549a1.645,1.645,0,0,0,.624.132.588.588,0,0,0,.529-.379l.152-.395h-.221l-1.329-3.38Z" transform="translate(-118.033 -9.936)" fill="#050605"/>
      <path id="Path_31187" data-name="Path 31187" d="M65.233,28H14.5A14.254,14.254,0,0,1,0,14,14.255,14.255,0,0,1,14.5,0H65.233a14.254,14.254,0,0,1,14.5,14,14.255,14.255,0,0,1-14.5,14M14.5.684A13.558,13.558,0,0,0,.709,14,13.558,13.558,0,0,0,14.5,27.316H65.233A13.558,13.558,0,0,0,79.02,14,13.558,13.558,0,0,0,65.233.684Z" fill="#050605"/>
      <path id="Path_31188" data-name="Path 31188" d="M30.758,28H14.492A14.254,14.254,0,0,1,0,14a14.255,14.255,0,0,1,14.5-14H30.762ZM14.5.684A13.558,13.558,0,0,0,.708,14,13.558,13.558,0,0,0,14.5,27.316H30.048V.684Z" transform="translate(0)" fill="#050605"/>
      <rect id="Rectangle_504" data-name="Rectangle 504" width="79.728" height="28" fill="none"/>
    </g>
  </g>
</svg>
