<svg xmlns="http://www.w3.org/2000/svg" width="34.583" height="34.584" viewBox="0 0 34.583 34.584">
  <g id="Group_3965" data-name="Group 3965" transform="translate(-867 -1270.708)">
    <path id="Union_3" data-name="Union 3" d="M17.292,0A17.292,17.292,0,1,0,34.584,17.292,17.292,17.292,0,0,0,17.292,0" transform="translate(866.999 1270.709)" fill="#fff"/>
    <g id="Icon_feather-map-pin" data-name="Icon feather-map-pin" transform="translate(876.646 1278.655)">
      <path id="Path_30777" data-name="Path 30777" d="M19.792,9.146c0,5.947-7.646,11.044-7.646,11.044S4.5,15.093,4.5,9.146a7.646,7.646,0,1,1,15.292,0Z" transform="translate(-4.5 -1.5)" fill="none" stroke="#050605" stroke-linecap="round" stroke-linejoin="round" stroke-width="1.5"/>
      <path id="Path_30778" data-name="Path 30778" d="M18.6,13.049A2.549,2.549,0,1,1,16.049,10.5,2.549,2.549,0,0,1,18.6,13.049Z" transform="translate(-8.403 -5.403)" fill="none" stroke="#050605" stroke-linecap="round" stroke-linejoin="round" stroke-width="1.5"/>
    </g>
  </g>
</svg>
