<svg xmlns="http://www.w3.org/2000/svg" width="20" height="20" viewBox="0 0 20 20">
  <g id="Show" transform="translate(-6205 8503)">
    <rect id="Rectangle_3203" data-name="Rectangle 3203" width="20" height="20" transform="translate(6205 -8503)" fill="none"/>
    <g id="show-2" data-name="show" transform="translate(6205.998 -8504.764)">
      <path id="Path_258" data-name="Path 258" d="M16.935,11.491a9.167,9.167,0,0,0-15.864,0,.557.557,0,0,0,0,.533,9.157,9.157,0,0,0,15.864,0A.557.557,0,0,0,16.935,11.491ZM9,15.1a3.334,3.334,0,1,1,3.334-3.334A3.335,3.335,0,0,1,9,15.1Z" fill="#f57513"/>
      <circle id="Ellipse_6" data-name="Ellipse 6" cx="2.267" cy="2.267" r="2.267" transform="translate(6.735 9.496)" fill="#f57513"/>
    </g>
  </g>
</svg>
